<?xml version="1.0" encoding="UTF-8"?>
<svg id="_Шар_2" data-name="Шар 2" xmlns="http://www.w3.org/2000/svg" viewBox="0 0 1080 723.19">
  <defs>
    <style>
      .cls-1 {
        fill: #fff;
      }
    </style>
  </defs>
  <path class="cls-1" d="M538.14,365.08c.98-1.13,1.94-2.22,2.89-3.3,35.18-39.94,78.03-79.47,119.46-117.7,13.19-12.17,25.64-23.66,37.73-35.05,1.91-1.79,3.8-3.59,5.67-5.37,59.32-56.32,97.27-100.22,89.62-131.4-3.73-15.19-17.52-26-42.16-33.04-10.72-3.06-22.64-4.61-35.43-4.61-42.03,0-95.43,16.59-158.74,49.31-8.16,4.22-16.65,8.8-25.23,13.6-54.85,30.73-106.81,67.24-144.01,95.18,30.8-27.83,74.54-64.98,124.6-100.53,8.68-6.16,16.85-11.79,24.95-17.22,17.88-11.97,35.7-23.09,52.96-33.06C638.58,14.09,683.87,0,725.07,0c52.34,0,79.58,23.37,79.84,23.61l.17.15.19.13c.3.21,30.13,21.55,32.55,54.37,1.63,22.22-9.47,44.83-33.01,67.19-18.43,17.52-46.62,42.08-83.81,73l-3.85,3.19c-59.58,49.43-128.43,103.89-175.7,140.87l-3.3,2.57Z"/>
  <path class="cls-1" d="M543.91,365.66c9.86,11.09,19.1,22.18,27.5,33.22,0,0-13.54-10.46-35.07-27.32-1.75-1.37-3.56-2.78-5.41-4.23-41.26-32.34-107.23-84.53-164.92-132.36-.09-.07-.19-.14-.28-.22-.56-.46-1.11-.92-1.66-1.38-3.6-2.98-7.16-5.94-10.68-8.89-.95-.78-1.89-1.57-2.82-2.35-.4-.34-.81-.68-1.21-1.02-.96-.8-1.92-1.61-2.88-2.41-16.28-13.67-31.51-26.72-44.87-38.54-2.35-2.08-4.64-4.12-6.87-6.12-6.71-6.02-12.85-11.67-18.3-16.84-77.42-73.55,0-127.74,0-127.74,0,0,74.32-65.81,219.1,17.8,2.16,1.25,4.31,2.51,6.45,3.77,2.15,1.27,4.29,2.54,6.42,3.82,16.2,9.73,3.22,34.42-13.97,26.58-2.79-1.27-5.57-2.52-8.35-3.73-1.37-.6-2.73-1.19-4.09-1.78-.08-.03-.16-.06-.25-.1-1.24-.53-2.47-1.05-3.7-1.57-.19-.08-.38-.16-.57-.23-1.29-.55-2.58-1.08-3.87-1.6-1.12-.46-2.23-.91-3.34-1.36-.62-.25-1.24-.49-1.86-.74-1.01-.4-2.02-.79-3.03-1.18-.03-.02-.07-.03-.1-.04-1.07-.42-2.14-.83-3.21-1.23-.57-.22-1.14-.43-1.71-.64-1.09-.41-2.18-.82-3.27-1.21-1.15-.43-2.3-.84-3.45-1.24-1.6-.58-3.19-1.14-4.78-1.68-1.02-.35-2.03-.69-3.04-1.03-.59-.2-1.19-.39-1.78-.59-1.09-.36-2.18-.71-3.26-1.05-1.33-.43-2.66-.84-3.99-1.24-.04-.02-.07-.03-.11-.04-.9-.28-1.8-.55-2.7-.81-.66-.2-1.32-.4-1.98-.59-.73-.21-1.46-.42-2.19-.62-1.84-.53-3.66-1.03-5.48-1.5-.8-.22-1.59-.43-2.39-.63-.56-.14-1.11-.29-1.67-.42-.71-.18-1.43-.36-2.13-.52-1.88-.46-3.76-.9-5.63-1.3-.9-.21-1.8-.4-2.7-.58-.34-.09-.69-.16-1.03-.22-.93-.2-1.86-.38-2.79-.55-1.02-.21-2.04-.41-3.05-.58-.68-.13-1.36-.25-2.04-.37-1.14-.2-2.27-.38-3.41-.56-1.27-.2-2.53-.39-3.78-.56-.7-.1-1.4-.2-2.1-.28-.71-.1-1.41-.19-2.12-.27-2.34-.29-4.66-.52-6.97-.71-.74-.07-1.48-.12-2.21-.17-.56-.05-1.12-.08-1.67-.12-16.07-1.02-31.18.19-44.91,4.12-29.15,8.33-40.91,21.71-40.21,39.01,0,.34.03.7.07,1.05,0,.3.03.6.07.9.03.45.08.89.14,1.34.05.47.12.95.2,1.42.04.26.08.51.13.77.04.22.08.44.13.67.05.28.1.57.17.85.06.32.14.65.22.97.03.16.07.32.11.48.08.37.18.74.28,1.11.05.2.11.4.17.6.09.35.19.7.3,1.05.14.48.29.97.45,1.46.1.31.21.63.32.95.36,1.05.76,2.12,1.19,3.2.23.59.48,1.19.73,1.78.26.6.52,1.2.8,1.8.27.61.56,1.21.85,1.82,1.18,2.44,2.51,4.93,3.98,7.47.33.57.66,1.13,1.01,1.7.42.71.86,1.42,1.31,2.14.34.55.68,1.09,1.04,1.64,8.43,13.13,20.36,27.46,34.69,42.74.71.76,1.43,1.52,2.15,2.28,2.33,2.46,4.72,4.94,7.17,7.45,1.34,1.38,2.7,2.76,4.08,4.15,1.49,1.51,3,3.02,4.52,4.54.73.73,1.47,1.47,2.22,2.2.93.92,1.87,1.85,2.81,2.78,1.31,1.29,2.63,2.58,3.97,3.88,1.52,1.48,3.06,2.97,4.6,4.46,1.57,1.52,3.16,3.04,4.75,4.56h0s0,.01,0,.01c1.58,1.52,3.18,3.04,4.79,4.56.8.77,1.61,1.53,2.42,2.3,48.06,45.47,106.35,96.2,152.67,147.13,1.98,2.18,3.94,4.36,5.87,6.53Z"/>
  <path class="cls-1" d="M494.44,81.43c-2.79-1.27-5.57-2.52-8.35-3.73-1.36-.6-2.72-1.19-4.09-1.78-.08-.03-.16-.06-.25-.1-1.23-.53-2.46-1.05-3.7-1.57-.19-.08-.38-.16-.57-.23-1.29-.54-2.58-1.08-3.87-1.6-1.11-.46-2.23-.91-3.34-1.36-.62-.25-1.24-.49-1.86-.74-1.01-.39-2.02-.79-3.03-1.18-.03-.02-.07-.03-.1-.04-1.07-.41-2.14-.83-3.21-1.23-.57-.22-1.14-.43-1.71-.64-1.09-.41-2.18-.82-3.27-1.21-1.15-.42-2.3-.84-3.45-1.24-1.6-.58-3.19-1.14-4.78-1.68-1.02-.35-2.03-.69-3.04-1.03-.6-.2-1.19-.39-1.78-.59-1.09-.36-2.18-.71-3.26-1.05-1.33-.43-2.66-.84-3.99-1.24-.04-.02-.07-.03-.11-.04-.9-.28-1.8-.55-2.7-.81-.66-.2-1.32-.4-1.98-.59-.73-.21-1.47-.42-2.19-.62-1.84-.53-3.66-1.03-5.48-1.5-.8-.22-1.59-.43-2.39-.63-.56-.14-1.11-.29-1.67-.42-.71-.18-1.42-.35-2.13-.52-1.88-.46-3.76-.9-5.63-1.3-.9-.21-1.8-.4-2.7-.58-.34-.09-.69-.16-1.03-.22-.93-.2-1.86-.38-2.79-.55-1.02-.21-2.04-.41-3.05-.58-.68-.13-1.36-.25-2.04-.37-1.14-.2-2.27-.38-3.41-.56-1.26-.2-2.53-.39-3.78-.56-.7-.1-1.4-.2-2.1-.28-.71-.1-1.42-.19-2.12-.27-2.34-.29-4.66-.52-6.97-.71-.74-.07-1.48-.12-2.21-.17-.56-.05-1.12-.08-1.67-.12-16.07-1.02-31.18.19-44.91,4.12-29.15,8.33-40.91,21.71-40.21,39.01,0,.34.03.69.07,1.05,0,.3.03.6.07.9.03.44.08.89.14,1.34.05.47.12.94.2,1.42.04.25.08.51.13.77.04.22.08.44.13.67.05.28.1.57.17.85.06.32.13.65.22.97.03.16.07.32.11.48.08.37.18.74.28,1.11.05.2.11.4.17.6.09.35.19.7.3,1.05.14.48.29.97.45,1.46.1.31.21.63.32.95.36,1.05.76,2.12,1.19,3.2.23.59.48,1.18.73,1.78.26.6.52,1.2.8,1.8.27.6.56,1.21.85,1.82,1.18,2.44,2.51,4.93,3.98,7.47.32.56.66,1.13,1.01,1.7.42.71.86,1.42,1.31,2.14.33.54.68,1.09,1.04,1.64,8.43,13.13,20.36,27.46,34.69,42.74.71.76,1.43,1.52,2.15,2.28,2.33,2.46,4.72,4.94,7.17,7.45,1.34,1.38,2.7,2.76,4.08,4.15,1.49,1.51,3,3.02,4.52,4.54.73.73,1.47,1.46,2.22,2.2.93.92,1.87,1.85,2.81,2.78,1.31,1.29,2.63,2.58,3.97,3.88,1.52,1.48,3.06,2.97,4.6,4.46,1.57,1.52,3.16,3.04,4.75,4.56,0,.01,0,.01,0,.01,1.58,1.52,3.18,3.04,4.79,4.56.8.77,1.61,1.53,2.42,2.3,13.91,13.17-4.51,34.32-19.36,22.97-.09-.07-.19-.14-.28-.22-.1-.08-.21-.16-.31-.25-.45-.37-.9-.75-1.35-1.13-3.6-2.98-7.16-5.94-10.68-8.89-.95-.78-1.89-1.57-2.82-2.35-.4-.34-.81-.68-1.21-1.02-.96-.8-1.92-1.61-2.88-2.41-16.28-13.67-31.51-26.72-44.87-38.54-2.35-2.08-4.64-4.12-6.87-6.12-6.71-6.02-12.85-11.67-18.3-16.84-77.42-73.55,0-127.74,0-127.74,0,0,74.32-65.81,219.1,17.8,2.16,1.25,4.31,2.51,6.45,3.77,2.15,1.27,4.29,2.54,6.42,3.82,16.2,9.73,3.22,34.42-13.97,26.58Z"/>
  <path class="cls-1" d="M457.49,723.19c3.36-10.04,6.05-25.07,5.52-47.16-.81-34.19-9.34-85.3-35.04-161.02-66.19-195.09-145.16-212.51-145.16-212.51,0,0-49.03-32.52-93.42,27.87,0,0-26.32,35.61,5.17,54.71,31.48,19.1,42.32,60.39,42.32,60.39,0,0-30.97-44.39-51.62-56.26,0,0-29.93-14.97-14.96-42.32,14.96-27.36,35.09-60.91,85.16-64,50.06-3.1,88.77,41.8,88.77,41.8,0,0,62.97,63.49,100.65,174.45,11.76,34.62,21.1,67.05,27.54,96.59,0,0,.01.04.03.13.05.22.17.73.33,1.51,2.3,11.03,13.93,75.37-15.29,125.82Z"/>
  <path class="cls-1" d="M190.66,315.38s-34.81,3.63-46.43,32.66-8.13,41.42,4.26,54.97,28.98,31.35,42.17,51.87c0,0-66.94-51.48-68.49-86.32s34.24-55.35,34.24-55.35c0,0,56.36-29.88,95.45-30.04,0,0-51.55,16.2-61.2,32.21Z"/>
  <path class="cls-1" d="M122.17,368.56s-36.13,33.42-7.23,66.45c28.9,33.03,170.84,143.23,166.19,259.1,0,0,20.26-50.71-10.71-106.84-30.97-56.13-102.19-117.68-133.55-148.26s-18.19-46.06-10.06-57.68l-4.65-12.77Z"/>
  <path class="cls-1" d="M894.74,389.21c-20.65,11.87-51.62,56.26-51.62,56.26,0,0,10.84-41.29,42.32-60.39,31.49-19.1,5.17-54.71,5.17-54.71-44.39-60.39-93.42-27.87-93.42-27.87,0,0-78.97,17.42-145.16,212.51-2.61,7.68-5.03,15.1-7.3,22.28-.31.99-.62,1.98-.92,2.96-.73,2.32-1.43,4.6-2.11,6.86-.35,1.13-.69,2.25-1.02,3.37-1.48,4.94-2.87,9.75-4.18,14.44-.23.8-.45,1.6-.67,2.39-2,7.19-3.8,14.1-5.43,20.73-.24.97-.48,1.94-.71,2.9-.46,1.92-.91,3.81-1.34,5.68-.22.93-.43,1.86-.64,2.79-.52,2.26-1.01,4.47-1.47,6.65-.19.85-.37,1.69-.54,2.53-.18.84-.35,1.68-.52,2.5-.17.83-.34,1.66-.5,2.47-.13.63-.25,1.25-.37,1.86-.12.6-.24,1.19-.35,1.79-.39,2.01-.76,3.99-1.11,5.93-.26,1.42-.5,2.82-.74,4.2-.2,1.14-.39,2.28-.56,3.39-.21,1.26-.41,2.5-.6,3.73-.15.92-.28,1.82-.41,2.72-.12.76-.23,1.51-.33,2.26-.11.75-.21,1.49-.31,2.22-.07.45-.13.89-.18,1.33-.1.7-.19,1.39-.27,2.07-.45,3.51-.83,6.9-1.16,10.17-.05.55-.1,1.09-.15,1.63-.36,3.82-.63,7.48-.82,10.97-.1,1.69-.17,3.33-.23,4.94-.02.38-.03.75-.04,1.11-.02.72-.04,1.44-.06,2.15-.03.94-.04,1.87-.05,2.78-.02,1.53-.02,3.03-.01,4.49,0,.46.01.9.02,1.35,0,.46.01.91.02,1.36.03,1.39.07,2.74.13,4.06,0,.07,0,.15.01.23.03.7.06,1.38.1,2.06.11,2.04.26,3.99.43,5.87.05.63.11,1.25.18,1.86.03.32.06.64.1.95.07.64.14,1.27.22,1.89.36,2.97.8,5.73,1.29,8.29.06.32.12.64.19.95.38,1.92.8,3.71,1.23,5.4.17.68.35,1.34.54,1.98.36,1.28.74,2.49,1.12,3.64-28.79-49.71-17.92-112.91-15.4-125.3.04-.18.08-.36.11-.52.16-.78.28-1.29.33-1.51.02-.09.03-.13.03-.13.8-3.69,1.65-7.43,2.55-11.21.38-1.59.76-3.19,1.15-4.8.95-3.86,1.93-7.77,2.97-11.72.19-.73.38-1.46.58-2.2.44-1.69.9-3.39,1.36-5.1.42-1.56.85-3.12,1.29-4.69.06-.23.12-.46.19-.69.5-1.79,1.01-3.58,1.52-5.39.06-.19.11-.39.17-.59,1.11-3.88,2.26-7.81,3.44-11.76,1.25-4.16,2.53-8.35,3.87-12.59.29-.94.59-1.87.88-2.81,2.4-7.56,4.92-15.25,7.57-23.04,37.68-110.96,100.65-174.45,100.65-174.45,0,0,38.71-44.9,88.77-41.8,1.23.08,2.45.17,3.64.29,25.65,2.4,43.13,13.04,56.09,26.52,1.75,1.82,3.42,3.7,5.02,5.61.02.03.04.05.07.08,8.38,10.08,14.72,21.23,20.34,31.5,14.97,27.35-14.96,42.32-14.96,42.32Z"/>
  <path class="cls-1" d="M889.34,315.38s34.81,3.63,46.43,32.66,8.13,41.42-4.26,54.97-28.98,31.35-42.17,51.87c0,0,66.94-51.48,68.49-86.32,1.55-34.84-34.24-55.35-34.24-55.35,0,0-56.36-29.88-95.45-30.04,0,0,51.55,16.2,61.2,32.21Z"/>
  <path class="cls-1" d="M957.83,368.56s36.13,33.42,7.23,66.45-170.84,143.23-166.19,259.1c0,0-20.26-50.71,10.71-106.84s102.19-117.68,133.55-148.26,18.19-46.06,10.06-57.68l4.65-12.77Z"/>
</svg>