<svg width="298" height="112" viewBox="0 0 298 112" fill="none" xmlns="http://www.w3.org/2000/svg">
<rect x="1" y="1" width="296" height="110" rx="19" fill="black"/>
<rect x="1" y="1" width="296" height="110" rx="19" stroke="#6D6D6D" stroke-width="2"/>
<g clip-path="url(#clip0_1_682)">
<path d="M65.9828 68.2467L70.8578 57.0523C71.0123 56.6771 71.0896 56.2753 71.0802 55.8749H58.4119H34.081V69.8749H63.564C64.6042 69.8749 65.5486 69.2379 65.9828 68.2467Z" fill="#23C76D"/>
<path d="M58.4613 55.8309L65.034 68.8749C65.3989 68.635 65.6894 68.2927 65.9043 67.8951L70.8478 56.9954C71.1729 56.2582 71.1583 55.4117 70.8027 54.6893L58.8301 30.3656C58.4931 29.6809 57.8921 29.1849 57.1889 28.98C56.9541 28.9113 56.7086 28.8749 56.4579 28.8749H46.4701C45.9699 28.8749 45.491 29.0191 45.081 29.2752L58.4613 55.8309Z" fill="#63CC5B"/>
<path d="M58.4613 55.8309L65.034 68.8749C65.3989 68.635 65.6894 68.2927 65.9043 67.8951L70.8478 56.9954C71.1729 56.2582 71.1583 55.4117 70.8027 54.6893L58.8301 30.3656C58.4931 29.6809 57.8921 29.1849 57.1889 28.98C56.9541 28.9113 56.7086 28.8749 56.4579 28.8749H46.4701C45.9699 28.8749 45.491 29.0191 45.081 29.2752L58.4613 55.8309Z" fill="#63CC5B"/>
<path opacity="0.05" d="M58.5631 55.8749H57.081L63.8191 69.8749C64.2766 69.8455 64.7065 69.6856 65.081 69.4346L58.5631 55.8749Z" fill="#030000"/>
<path opacity="0.07" d="M58.7945 55.8749H58.081L64.5176 69.8749C64.7185 69.7999 64.9042 69.6909 65.081 69.5649L58.7945 55.8749Z" fill="#030000"/>
<path d="M80.9999 65.4608L79.137 60.8619C78.9495 60.3984 79.2558 59.8749 79.7134 59.8749H83.448C83.9068 59.8749 84.2131 60.3999 84.0243 60.8634L82.1527 65.4623C81.9289 66.0127 81.2225 66.0127 80.9999 65.4608Z" fill="#C7F2D4"/>
<path d="M75.5341 73.1851L72.1822 65.5207C71.8441 64.7478 72.3944 63.8749 73.2198 63.8749H79.9415C80.7683 63.8749 81.3186 64.7507 80.9791 65.5235L77.6105 73.188C77.2055 74.1051 75.9352 74.1037 75.5341 73.1851Z" fill="#9EE8B3"/>
<path d="M69.685 81.0471L65.2158 71.8496C64.7651 70.923 65.4998 69.8749 66.5997 69.8749H75.5622C76.6636 69.8749 77.3982 70.9256 76.9449 71.8523L72.453 81.0498C71.9143 82.1511 70.221 82.1498 69.685 81.0471Z" fill="#73DF92"/>
<path opacity="0.05" d="M57.2769 28.9667C57.0539 28.9069 56.8177 28.8833 56.58 28.8749L50.081 40.824L51.739 43.8749L59.081 30.3642C58.703 29.6759 58.0475 29.1753 57.2769 28.9667Z" fill="#030000"/>
<path opacity="0.07" d="M56.3393 28.8749L56.0203 29.5435H56.2461C56.4018 29.5435 56.5549 29.564 56.7029 29.6036L51.081 41.3737L51.7981 42.8749L58.081 29.7239C57.7684 29.3698 57.3805 29.1019 56.9428 28.9679C56.7489 28.9064 56.5447 28.8845 56.3393 28.8749Z" fill="#030000"/>
<path opacity="0.05" d="M46.081 55.8749H43.031L36.081 69.8749H39.1296L46.081 55.8749Z" fill="#030000"/>
<path opacity="0.07" d="M45.081 55.8749H43.4618L36.081 69.8749H37.7002L45.081 55.8749Z" fill="#030000"/>
<path d="M56.6387 28.8749H46.2681C45.2239 28.8749 44.2706 29.4512 43.8036 30.3641L24.2267 68.6335C24.0228 69.0307 24.0338 69.5006 24.2542 69.8897L29.5359 79.183C30.0677 80.1202 31.4494 80.1 31.9577 79.1548L58.081 29.2748C57.6553 29.019 57.158 28.8749 56.6387 28.8749Z" fill="#38C78F"/>
</g>
<path d="M101.584 21.248H106.644C107.891 21.248 109.005 21.446 109.988 21.842C110.985 22.2233 111.829 22.7587 112.518 23.448C113.222 24.1373 113.757 24.966 114.124 25.934C114.505 26.902 114.696 27.9653 114.696 29.124C114.696 30.2827 114.505 31.346 114.124 32.314C113.757 33.282 113.222 34.1107 112.518 34.8C111.829 35.4893 110.985 36.032 109.988 36.428C109.005 36.8093 107.891 37 106.644 37H101.584V21.248ZM106.6 34.624C108.375 34.624 109.746 34.14 110.714 33.172C111.682 32.204 112.166 30.8547 112.166 29.124C112.166 27.408 111.682 26.066 110.714 25.098C109.746 24.1153 108.375 23.624 106.6 23.624H104.07V34.624H106.6ZM121.437 25.868C122.259 25.868 123.014 26.0147 123.703 26.308C124.393 26.5867 124.987 26.9827 125.485 27.496C125.984 28.0093 126.373 28.618 126.651 29.322C126.93 30.026 127.069 30.7887 127.069 31.61C127.069 32.4313 126.93 33.194 126.651 33.898C126.373 34.602 125.984 35.2107 125.485 35.724C124.987 36.2373 124.393 36.6407 123.703 36.934C123.014 37.2127 122.259 37.352 121.437 37.352C120.616 37.352 119.861 37.2127 119.171 36.934C118.482 36.6407 117.888 36.2373 117.389 35.724C116.891 35.2107 116.502 34.602 116.223 33.898C115.945 33.194 115.805 32.4313 115.805 31.61C115.805 30.7887 115.945 30.026 116.223 29.322C116.502 28.618 116.891 28.0093 117.389 27.496C117.888 26.9827 118.482 26.5867 119.171 26.308C119.861 26.0147 120.616 25.868 121.437 25.868ZM121.437 35.086C121.848 35.086 122.244 35.0053 122.625 34.844C123.007 34.6827 123.344 34.4553 123.637 34.162C123.945 33.8687 124.187 33.5093 124.363 33.084C124.539 32.644 124.627 32.1527 124.627 31.61C124.627 31.0673 124.539 30.5833 124.363 30.158C124.187 29.718 123.945 29.3513 123.637 29.058C123.344 28.7647 123.007 28.5373 122.625 28.376C122.244 28.2147 121.848 28.134 121.437 28.134C121.027 28.134 120.631 28.2147 120.249 28.376C119.868 28.5373 119.523 28.7647 119.215 29.058C118.922 29.3513 118.687 29.718 118.511 30.158C118.335 30.5833 118.247 31.0673 118.247 31.61C118.247 32.1527 118.335 32.644 118.511 33.084C118.687 33.5093 118.922 33.8687 119.215 34.162C119.523 34.4553 119.868 34.6827 120.249 34.844C120.631 35.0053 121.027 35.086 121.437 35.086ZM127.567 26.22H130.229L132.319 33.678H132.407L134.827 26.22H137.357L139.755 33.678H139.843L141.911 26.22H144.529L141.075 37H138.501L136.059 29.454H135.971L133.595 37H131.021L127.567 26.22ZM148.165 27.672H148.297C148.62 27.1587 149.074 26.7333 149.661 26.396C150.262 26.044 150.937 25.868 151.685 25.868C153.049 25.868 154.068 26.2787 154.743 27.1C155.418 27.9067 155.755 28.9847 155.755 30.334V37H153.313V30.664C153.313 29.7253 153.093 29.0727 152.653 28.706C152.228 28.3247 151.663 28.134 150.959 28.134C150.534 28.134 150.16 28.222 149.837 28.398C149.514 28.574 149.236 28.816 149.001 29.124C148.766 29.4173 148.59 29.762 148.473 30.158C148.356 30.5393 148.297 30.9427 148.297 31.368V37H145.855V26.22H148.165V27.672ZM158.123 37V21.248H160.565V37H158.123ZM167.93 25.868C168.751 25.868 169.506 26.0147 170.196 26.308C170.885 26.5867 171.479 26.9827 171.978 27.496C172.476 28.0093 172.865 28.618 173.144 29.322C173.422 30.026 173.562 30.7887 173.562 31.61C173.562 32.4313 173.422 33.194 173.144 33.898C172.865 34.602 172.476 35.2107 171.978 35.724C171.479 36.2373 170.885 36.6407 170.196 36.934C169.506 37.2127 168.751 37.352 167.93 37.352C167.108 37.352 166.353 37.2127 165.664 36.934C164.974 36.6407 164.38 36.2373 163.882 35.724C163.383 35.2107 162.994 34.602 162.716 33.898C162.437 33.194 162.298 32.4313 162.298 31.61C162.298 30.7887 162.437 30.026 162.716 29.322C162.994 28.618 163.383 28.0093 163.882 27.496C164.38 26.9827 164.974 26.5867 165.664 26.308C166.353 26.0147 167.108 25.868 167.93 25.868ZM167.93 35.086C168.34 35.086 168.736 35.0053 169.118 34.844C169.499 34.6827 169.836 34.4553 170.13 34.162C170.438 33.8687 170.68 33.5093 170.856 33.084C171.032 32.644 171.12 32.1527 171.12 31.61C171.12 31.0673 171.032 30.5833 170.856 30.158C170.68 29.718 170.438 29.3513 170.13 29.058C169.836 28.7647 169.499 28.5373 169.118 28.376C168.736 28.2147 168.34 28.134 167.93 28.134C167.519 28.134 167.123 28.2147 166.742 28.376C166.36 28.5373 166.016 28.7647 165.708 29.058C165.414 29.3513 165.18 29.718 165.004 30.158C164.828 30.5833 164.74 31.0673 164.74 31.61C164.74 32.1527 164.828 32.644 165.004 33.084C165.18 33.5093 165.414 33.8687 165.708 34.162C166.016 34.4553 166.36 34.6827 166.742 34.844C167.123 35.0053 167.519 35.086 167.93 35.086ZM182.238 35.68H182.106C181.783 36.1053 181.365 36.494 180.852 36.846C180.338 37.1833 179.686 37.352 178.894 37.352C178.322 37.352 177.786 37.2567 177.288 37.066C176.789 36.89 176.356 36.6407 175.99 36.318C175.623 35.9807 175.33 35.592 175.11 35.152C174.904 34.6973 174.802 34.1987 174.802 33.656C174.802 33.084 174.912 32.5707 175.132 32.116C175.366 31.6613 175.682 31.28 176.078 30.972C176.488 30.664 176.972 30.4293 177.53 30.268C178.087 30.092 178.688 30.004 179.334 30.004C180.052 30.004 180.654 30.0773 181.138 30.224C181.622 30.356 181.988 30.4807 182.238 30.598V30.18C182.238 29.8573 182.164 29.5567 182.018 29.278C181.886 28.9993 181.695 28.7647 181.446 28.574C181.211 28.3687 180.94 28.2147 180.632 28.112C180.324 27.9947 180.001 27.936 179.664 27.936C179.121 27.936 178.63 28.046 178.19 28.266C177.764 28.4713 177.383 28.8087 177.046 29.278L175.11 28.002C175.623 27.298 176.261 26.77 177.024 26.418C177.786 26.0513 178.652 25.868 179.62 25.868C181.218 25.868 182.45 26.264 183.316 27.056C184.196 27.848 184.636 28.9773 184.636 30.444V37H182.238V35.68ZM182.238 32.512C181.915 32.3213 181.556 32.1673 181.16 32.05C180.764 31.9327 180.309 31.874 179.796 31.874C179.033 31.874 178.424 32.05 177.97 32.402C177.515 32.754 177.288 33.1793 177.288 33.678C177.288 33.942 177.346 34.1767 177.464 34.382C177.581 34.5727 177.728 34.7413 177.904 34.888C178.094 35.0347 178.307 35.1447 178.542 35.218C178.791 35.2913 179.04 35.328 179.29 35.328C179.686 35.328 180.06 35.2547 180.412 35.108C180.778 34.9467 181.094 34.7413 181.358 34.492C181.622 34.228 181.834 33.9273 181.996 33.59C182.157 33.2527 182.238 32.8933 182.238 32.512ZM194.988 35.614H194.856C194.562 36.0833 194.115 36.494 193.514 36.846C192.912 37.1833 192.194 37.352 191.358 37.352C190.668 37.352 190.008 37.2127 189.378 36.934C188.762 36.6407 188.219 36.2373 187.75 35.724C187.28 35.2107 186.906 34.6093 186.628 33.92C186.349 33.216 186.21 32.446 186.21 31.61C186.21 30.774 186.349 30.0113 186.628 29.322C186.906 28.618 187.28 28.0093 187.75 27.496C188.219 26.9827 188.762 26.5867 189.378 26.308C190.008 26.0147 190.668 25.868 191.358 25.868C192.194 25.868 192.912 26.044 193.514 26.396C194.115 26.7333 194.562 27.1367 194.856 27.606H194.988L194.856 26.11V21.248H197.298V37H194.988V35.614ZM191.82 35.086C192.23 35.086 192.626 35.0053 193.008 34.844C193.404 34.6827 193.741 34.4553 194.02 34.162C194.313 33.8687 194.548 33.5093 194.724 33.084C194.9 32.644 194.988 32.1527 194.988 31.61C194.988 31.0673 194.9 30.5833 194.724 30.158C194.548 29.718 194.313 29.3513 194.02 29.058C193.741 28.7647 193.404 28.5373 193.008 28.376C192.626 28.2147 192.23 28.134 191.82 28.134C191.394 28.134 190.991 28.2147 190.61 28.376C190.228 28.5373 189.891 28.772 189.598 29.08C189.319 29.3733 189.092 29.7327 188.916 30.158C188.74 30.5833 188.652 31.0673 188.652 31.61C188.652 32.1527 188.74 32.6367 188.916 33.062C189.092 33.4873 189.319 33.854 189.598 34.162C189.891 34.4553 190.228 34.6827 190.61 34.844C190.991 35.0053 191.394 35.086 191.82 35.086ZM209.609 25.868C210.431 25.868 211.186 26.0147 211.875 26.308C212.565 26.5867 213.159 26.9827 213.657 27.496C214.156 28.0093 214.545 28.618 214.823 29.322C215.102 30.026 215.241 30.7887 215.241 31.61C215.241 32.4313 215.102 33.194 214.823 33.898C214.545 34.602 214.156 35.2107 213.657 35.724C213.159 36.2373 212.565 36.6407 211.875 36.934C211.186 37.2127 210.431 37.352 209.609 37.352C208.788 37.352 208.033 37.2127 207.343 36.934C206.654 36.6407 206.06 36.2373 205.561 35.724C205.063 35.2107 204.674 34.602 204.395 33.898C204.117 33.194 203.977 32.4313 203.977 31.61C203.977 30.7887 204.117 30.026 204.395 29.322C204.674 28.618 205.063 28.0093 205.561 27.496C206.06 26.9827 206.654 26.5867 207.343 26.308C208.033 26.0147 208.788 25.868 209.609 25.868ZM209.609 35.086C210.02 35.086 210.416 35.0053 210.797 34.844C211.179 34.6827 211.516 34.4553 211.809 34.162C212.117 33.8687 212.359 33.5093 212.535 33.084C212.711 32.644 212.799 32.1527 212.799 31.61C212.799 31.0673 212.711 30.5833 212.535 30.158C212.359 29.718 212.117 29.3513 211.809 29.058C211.516 28.7647 211.179 28.5373 210.797 28.376C210.416 28.2147 210.02 28.134 209.609 28.134C209.199 28.134 208.803 28.2147 208.421 28.376C208.04 28.5373 207.695 28.7647 207.387 29.058C207.094 29.3513 206.859 29.718 206.683 30.158C206.507 30.5833 206.419 31.0673 206.419 31.61C206.419 32.1527 206.507 32.644 206.683 33.084C206.859 33.5093 207.094 33.8687 207.387 34.162C207.695 34.4553 208.04 34.6827 208.421 34.844C208.803 35.0053 209.199 35.086 209.609 35.086ZM219.192 27.672H219.324C219.647 27.1587 220.102 26.7333 220.688 26.396C221.29 26.044 221.964 25.868 222.712 25.868C224.076 25.868 225.096 26.2787 225.77 27.1C226.445 27.9067 226.782 28.9847 226.782 30.334V37H224.34V30.664C224.34 29.7253 224.12 29.0727 223.68 28.706C223.255 28.3247 222.69 28.134 221.986 28.134C221.561 28.134 221.187 28.222 220.864 28.398C220.542 28.574 220.263 28.816 220.028 29.124C219.794 29.4173 219.618 29.762 219.5 30.158C219.383 30.5393 219.324 30.9427 219.324 31.368V37H216.882V26.22H219.192V27.672Z" fill="white"/>
<path d="M112.364 53.496H118.084L129.92 85H124.42L121.56 76.904H108.888L106.028 85H100.528L112.364 53.496ZM119.888 72.372L116.588 63.088L115.356 59.392H115.092L113.86 63.088L110.56 72.372H119.888ZM133.633 85V53.496H144.545C145.953 53.496 147.273 53.7307 148.505 54.2C149.766 54.6693 150.866 55.3293 151.805 56.18C152.744 57.0307 153.477 58.0573 154.005 59.26C154.562 60.4333 154.841 61.7387 154.841 63.176C154.841 64.584 154.562 65.8893 154.005 67.092C153.477 68.2653 152.744 69.2773 151.805 70.128C150.866 70.9787 149.766 71.6387 148.505 72.108C147.273 72.5773 145.953 72.812 144.545 72.812H138.605V85H133.633ZM144.677 68.06C145.498 68.06 146.232 67.928 146.877 67.664C147.522 67.3707 148.065 66.9893 148.505 66.52C148.945 66.0507 149.282 65.5227 149.517 64.936C149.752 64.3493 149.869 63.7627 149.869 63.176C149.869 62.56 149.752 61.9587 149.517 61.372C149.282 60.7853 148.945 60.272 148.505 59.832C148.065 59.3627 147.522 58.9813 146.877 58.688C146.232 58.3947 145.498 58.248 144.677 58.248H138.605V68.06H144.677ZM159.07 53.496H164.042V68.368H164.306L177.022 53.496H183.226V53.76L171.698 67.048L184.194 84.736V85H178.122L168.266 70.92L164.042 75.804V85H159.07V53.496ZM187.43 85V53.496H198.342C199.75 53.496 201.07 53.7307 202.302 54.2C203.563 54.6693 204.663 55.3293 205.602 56.18C206.54 57.0307 207.274 58.0573 207.802 59.26C208.359 60.4333 208.638 61.7387 208.638 63.176C208.638 64.584 208.359 65.8893 207.802 67.092C207.274 68.2653 206.54 69.2773 205.602 70.128C204.663 70.9787 203.563 71.6387 202.302 72.108C201.07 72.5773 199.75 72.812 198.342 72.812H192.402V85H187.43ZM198.474 68.06C199.295 68.06 200.028 67.928 200.674 67.664C201.319 67.3707 201.862 66.9893 202.302 66.52C202.742 66.0507 203.079 65.5227 203.314 64.936C203.548 64.3493 203.666 63.7627 203.666 63.176C203.666 62.56 203.548 61.9587 203.314 61.372C203.079 60.7853 202.742 60.272 202.302 59.832C201.862 59.3627 201.319 58.9813 200.674 58.688C200.028 58.3947 199.295 58.248 198.474 58.248H192.402V68.06H198.474ZM226.738 82.096H226.474C225.828 83.1227 224.904 83.988 223.702 84.692C222.528 85.3667 221.194 85.704 219.698 85.704C216.97 85.704 214.931 84.8973 213.582 83.284C212.232 81.6413 211.558 79.4707 211.558 76.772V63.44H216.442V76.112C216.442 77.9893 216.867 79.3093 217.718 80.072C218.598 80.8053 219.742 81.172 221.15 81.172C221.971 81.172 222.704 80.996 223.35 80.644C224.024 80.292 224.596 79.8227 225.066 79.236C225.535 78.62 225.887 77.9307 226.122 77.168C226.356 76.376 226.474 75.5547 226.474 74.704V63.44H231.358V85H226.738V82.096ZM236.269 63.44H240.889V66.696H241.153C241.417 66.1387 241.769 65.6253 242.209 65.156C242.678 64.6573 243.191 64.2467 243.749 63.924C244.335 63.572 244.937 63.308 245.553 63.132C246.198 62.9267 246.814 62.824 247.401 62.824C248.105 62.824 248.706 62.8827 249.205 63C249.703 63.1173 250.158 63.2787 250.569 63.484L249.161 68.016C248.838 67.8693 248.471 67.7667 248.061 67.708C247.679 67.62 247.21 67.576 246.653 67.576C245.861 67.576 245.127 67.7373 244.453 68.06C243.807 68.3827 243.235 68.8227 242.737 69.38C242.238 69.9373 241.842 70.5973 241.549 71.36C241.285 72.1227 241.153 72.9293 241.153 73.78V85H236.269V63.44ZM271.842 79.852C270.933 81.524 269.642 82.9173 267.97 84.032C266.298 85.1467 264.245 85.704 261.81 85.704C260.197 85.704 258.701 85.4253 257.322 84.868C255.973 84.2813 254.8 83.4747 253.802 82.448C252.805 81.4213 252.028 80.2187 251.47 78.84C250.913 77.432 250.634 75.892 250.634 74.22C250.634 72.6653 250.898 71.1987 251.426 69.82C251.954 68.412 252.688 67.1947 253.626 66.168C254.594 65.112 255.753 64.276 257.102 63.66C258.452 63.044 259.948 62.736 261.59 62.736C263.262 62.736 264.744 63.0147 266.034 63.572C267.354 64.1293 268.469 64.9067 269.378 65.904C270.288 66.9013 270.977 68.104 271.446 69.512C271.945 70.92 272.194 72.46 272.194 74.132C272.194 74.2787 272.194 74.4107 272.194 74.528C272.165 74.6747 272.15 74.8067 272.15 74.924C272.121 75.0413 272.106 75.1587 272.106 75.276H255.518C255.606 76.3027 255.856 77.1973 256.266 77.96C256.677 78.7227 257.176 79.3533 257.762 79.852C258.378 80.3507 259.053 80.7173 259.786 80.952C260.52 81.1867 261.238 81.304 261.942 81.304C263.35 81.304 264.509 80.9667 265.418 80.292C266.328 79.6173 267.076 78.7813 267.662 77.784L271.842 79.852ZM267.31 71.536C267.252 71.096 267.105 70.612 266.87 70.084C266.665 69.5267 266.328 69.028 265.858 68.588C265.418 68.1187 264.832 67.7227 264.098 67.4C263.394 67.0773 262.529 66.916 261.502 66.916C260.094 66.916 258.877 67.3413 257.85 68.192C256.853 69.0133 256.178 70.128 255.826 71.536H267.31Z" fill="white"/>
<defs>
<clipPath id="clip0_1_682">
<rect width="60" height="60" fill="white" transform="translate(24 26)"/>
</clipPath>
</defs>
</svg>
