<svg width="241" height="90" viewBox="0 0 241 90" fill="none" xmlns="http://www.w3.org/2000/svg">
<rect x="1" y="1" width="239" height="88" rx="19" fill="black"/>
<rect x="1" y="1" width="239" height="88" rx="19" stroke="#6D6D6D" stroke-width="2"/>
<g clip-path="url(#clip0_1_682)">
<path d="M58.9857 55.2056L63.0482 45.8769C63.1769 45.5643 63.2413 45.2294 63.2335 44.8958H52.6766H32.4008V56.5624H56.97C57.8369 56.5624 58.6238 56.0316 58.9857 55.2056Z" fill="#23C76D"/>
<path d="M52.7177 44.8591L58.195 55.7291C58.499 55.5292 58.7412 55.2439 58.9203 54.9126L63.0398 45.8295C63.3107 45.2152 63.2986 44.5098 63.0023 43.9078L53.0251 23.638C52.7443 23.0674 52.2434 22.6541 51.6574 22.4834C51.4617 22.4261 51.2572 22.3958 51.0482 22.3958H42.7251C42.3083 22.3958 41.9091 22.516 41.5675 22.7294L52.7177 44.8591Z" fill="#63CC5B"/>
<path d="M52.7177 44.8591L58.195 55.7291C58.499 55.5292 58.7412 55.2439 58.9203 54.9126L63.0398 45.8295C63.3107 45.2152 63.2986 44.5098 63.0023 43.9078L53.0251 23.638C52.7443 23.0674 52.2434 22.6541 51.6574 22.4834C51.4617 22.4261 51.2572 22.3958 51.0482 22.3958H42.7251C42.3083 22.3958 41.9091 22.516 41.5675 22.7294L52.7177 44.8591Z" fill="#63CC5B"/>
<path opacity="0.05" d="M52.8026 44.8958H51.5675L57.1826 56.5624C57.5639 56.5379 57.9221 56.4046 58.2342 56.1955L52.8026 44.8958Z" fill="#030000"/>
<path opacity="0.07" d="M52.9954 44.8958H52.4008L57.7646 56.5624C57.9321 56.4999 58.0868 56.409 58.2342 56.304L52.9954 44.8958Z" fill="#030000"/>
<path d="M71.4999 52.884L69.9475 49.0516C69.7912 48.6654 70.0465 48.2291 70.4278 48.2291H73.54C73.9223 48.2291 74.1776 48.6666 74.0203 49.0529L72.4606 52.8852C72.2741 53.344 71.6854 53.344 71.4999 52.884Z" fill="#C7F2D4"/>
<path d="M66.9451 59.3209L64.1519 52.9339C63.8701 52.2898 64.3286 51.5624 65.0165 51.5624H70.618C71.3069 51.5624 71.7655 52.2922 71.4826 52.9363L68.6754 59.3233C68.3379 60.0876 67.2794 60.0864 66.9451 59.3209Z" fill="#9EE8B3"/>
<path d="M62.0708 65.8726L58.3465 58.208C57.9709 57.4358 58.5831 56.5624 59.4998 56.5624H66.9685C67.8863 56.5624 68.4985 57.438 68.1207 58.2102L64.3775 65.8748C63.9286 66.7926 62.5175 66.7915 62.0708 65.8726Z" fill="#73DF92"/>
<path opacity="0.05" d="M51.7307 22.4723C51.5449 22.4224 51.3481 22.4027 51.15 22.3958L45.7342 32.3534L47.1158 34.8958L53.2342 23.6369C52.9192 23.0633 52.3729 22.6461 51.7307 22.4723Z" fill="#030000"/>
<path opacity="0.07" d="M50.9494 22.3958L50.6836 22.9529H50.8718C51.0015 22.9529 51.1291 22.97 51.2524 23.003L46.5675 32.8115L47.1651 34.0624L52.4008 23.1033C52.1403 22.8082 51.8171 22.5849 51.4523 22.4733C51.2907 22.422 51.1206 22.4038 50.9494 22.3958Z" fill="#030000"/>
<path opacity="0.05" d="M42.4008 44.8958H39.8592L34.0675 56.5624H36.608L42.4008 44.8958Z" fill="#030000"/>
<path opacity="0.07" d="M41.5675 44.8958H40.2182L34.0675 56.5624H35.4168L41.5675 44.8958Z" fill="#030000"/>
<path d="M51.1989 22.3958H42.5568C41.6866 22.3958 40.8922 22.876 40.503 23.6368L24.1889 55.5279C24.019 55.8589 24.0282 56.2505 24.2118 56.5748L28.6132 64.3192C29.0564 65.1002 30.2078 65.0833 30.6314 64.2957L52.4008 22.729C52.0461 22.5158 51.6317 22.3958 51.1989 22.3958Z" fill="#38C78F"/>
</g>
<path d="M91.152 19.544H94.832C95.7387 19.544 96.5493 19.688 97.264 19.976C97.9893 20.2533 98.6027 20.6427 99.104 21.144C99.616 21.6453 100.005 22.248 100.272 22.952C100.549 23.656 100.688 24.4293 100.688 25.272C100.688 26.1147 100.549 26.888 100.272 27.592C100.005 28.296 99.616 28.8987 99.104 29.4C98.6027 29.9013 97.9893 30.296 97.264 30.584C96.5493 30.8613 95.7387 31 94.832 31H91.152V19.544ZM94.8 29.272C96.0907 29.272 97.088 28.92 97.792 28.216C98.496 27.512 98.848 26.5307 98.848 25.272C98.848 24.024 98.496 23.048 97.792 22.344C97.088 21.6293 96.0907 21.272 94.8 21.272H92.96V29.272H94.8ZM105.591 22.904C106.188 22.904 106.738 23.0107 107.239 23.224C107.74 23.4267 108.172 23.7147 108.535 24.088C108.898 24.4613 109.18 24.904 109.383 25.416C109.586 25.928 109.687 26.4827 109.687 27.08C109.687 27.6773 109.586 28.232 109.383 28.744C109.18 29.256 108.898 29.6987 108.535 30.072C108.172 30.4453 107.74 30.7387 107.239 30.952C106.738 31.1547 106.188 31.256 105.591 31.256C104.994 31.256 104.444 31.1547 103.943 30.952C103.442 30.7387 103.01 30.4453 102.647 30.072C102.284 29.6987 102.002 29.256 101.799 28.744C101.596 28.232 101.495 27.6773 101.495 27.08C101.495 26.4827 101.596 25.928 101.799 25.416C102.002 24.904 102.284 24.4613 102.647 24.088C103.01 23.7147 103.442 23.4267 103.943 23.224C104.444 23.0107 104.994 22.904 105.591 22.904ZM105.591 29.608C105.89 29.608 106.178 29.5493 106.455 29.432C106.732 29.3147 106.978 29.1493 107.191 28.936C107.415 28.7227 107.591 28.4613 107.719 28.152C107.847 27.832 107.911 27.4747 107.911 27.08C107.911 26.6853 107.847 26.3333 107.719 26.024C107.591 25.704 107.415 25.4373 107.191 25.224C106.978 25.0107 106.732 24.8453 106.455 24.728C106.178 24.6107 105.89 24.552 105.591 24.552C105.292 24.552 105.004 24.6107 104.727 24.728C104.45 24.8453 104.199 25.0107 103.975 25.224C103.762 25.4373 103.591 25.704 103.463 26.024C103.335 26.3333 103.271 26.6853 103.271 27.08C103.271 27.4747 103.335 27.832 103.463 28.152C103.591 28.4613 103.762 28.7227 103.975 28.936C104.199 29.1493 104.45 29.3147 104.727 29.432C105.004 29.5493 105.292 29.608 105.591 29.608ZM110.048 23.16H111.984L113.504 28.584H113.568L115.328 23.16H117.168L118.912 28.584H118.976L120.48 23.16H122.384L119.872 31H118L116.224 25.512H116.16L114.432 31H112.56L110.048 23.16ZM125.029 24.216H125.125C125.36 23.8427 125.69 23.5333 126.117 23.288C126.554 23.032 127.045 22.904 127.589 22.904C128.581 22.904 129.322 23.2027 129.813 23.8C130.304 24.3867 130.549 25.1707 130.549 26.152V31H128.773V26.392C128.773 25.7093 128.613 25.2347 128.293 24.968C127.984 24.6907 127.573 24.552 127.061 24.552C126.752 24.552 126.48 24.616 126.245 24.744C126.01 24.872 125.808 25.048 125.637 25.272C125.466 25.4853 125.338 25.736 125.253 26.024C125.168 26.3013 125.125 26.5947 125.125 26.904V31H123.349V23.16H125.029V24.216ZM132.271 31V19.544H134.047V31H132.271ZM139.403 22.904C140.001 22.904 140.55 23.0107 141.051 23.224C141.553 23.4267 141.985 23.7147 142.347 24.088C142.71 24.4613 142.993 24.904 143.195 25.416C143.398 25.928 143.499 26.4827 143.499 27.08C143.499 27.6773 143.398 28.232 143.195 28.744C142.993 29.256 142.71 29.6987 142.347 30.072C141.985 30.4453 141.553 30.7387 141.051 30.952C140.55 31.1547 140.001 31.256 139.403 31.256C138.806 31.256 138.257 31.1547 137.755 30.952C137.254 30.7387 136.822 30.4453 136.459 30.072C136.097 29.6987 135.814 29.256 135.611 28.744C135.409 28.232 135.307 27.6773 135.307 27.08C135.307 26.4827 135.409 25.928 135.611 25.416C135.814 24.904 136.097 24.4613 136.459 24.088C136.822 23.7147 137.254 23.4267 137.755 23.224C138.257 23.0107 138.806 22.904 139.403 22.904ZM139.403 29.608C139.702 29.608 139.99 29.5493 140.267 29.432C140.545 29.3147 140.79 29.1493 141.003 28.936C141.227 28.7227 141.403 28.4613 141.531 28.152C141.659 27.832 141.723 27.4747 141.723 27.08C141.723 26.6853 141.659 26.3333 141.531 26.024C141.403 25.704 141.227 25.4373 141.003 25.224C140.79 25.0107 140.545 24.8453 140.267 24.728C139.99 24.6107 139.702 24.552 139.403 24.552C139.105 24.552 138.817 24.6107 138.539 24.728C138.262 24.8453 138.011 25.0107 137.787 25.224C137.574 25.4373 137.403 25.704 137.275 26.024C137.147 26.3333 137.083 26.6853 137.083 27.08C137.083 27.4747 137.147 27.832 137.275 28.152C137.403 28.4613 137.574 28.7227 137.787 28.936C138.011 29.1493 138.262 29.3147 138.539 29.432C138.817 29.5493 139.105 29.608 139.403 29.608ZM149.809 30.04H149.713C149.478 30.3493 149.174 30.632 148.801 30.888C148.428 31.1333 147.953 31.256 147.377 31.256C146.961 31.256 146.572 31.1867 146.209 31.048C145.846 30.92 145.532 30.7387 145.265 30.504C144.998 30.2587 144.785 29.976 144.625 29.656C144.476 29.3253 144.401 28.9627 144.401 28.568C144.401 28.152 144.481 27.7787 144.641 27.448C144.812 27.1173 145.041 26.84 145.329 26.616C145.628 26.392 145.98 26.2213 146.385 26.104C146.79 25.976 147.228 25.912 147.697 25.912C148.22 25.912 148.657 25.9653 149.009 26.072C149.361 26.168 149.628 26.2587 149.809 26.344V26.04C149.809 25.8053 149.756 25.5867 149.649 25.384C149.553 25.1813 149.414 25.0107 149.233 24.872C149.062 24.7227 148.865 24.6107 148.641 24.536C148.417 24.4507 148.182 24.408 147.937 24.408C147.542 24.408 147.185 24.488 146.865 24.648C146.556 24.7973 146.278 25.0427 146.033 25.384L144.625 24.456C144.998 23.944 145.462 23.56 146.017 23.304C146.572 23.0373 147.201 22.904 147.905 22.904C149.068 22.904 149.964 23.192 150.593 23.768C151.233 24.344 151.553 25.1653 151.553 26.232V31H149.809V30.04ZM149.809 27.736C149.574 27.5973 149.313 27.4853 149.025 27.4C148.737 27.3147 148.406 27.272 148.033 27.272C147.478 27.272 147.036 27.4 146.705 27.656C146.374 27.912 146.209 28.2213 146.209 28.584C146.209 28.776 146.252 28.9467 146.337 29.096C146.422 29.2347 146.529 29.3573 146.657 29.464C146.796 29.5707 146.95 29.6507 147.121 29.704C147.302 29.7573 147.484 29.784 147.665 29.784C147.953 29.784 148.225 29.7307 148.481 29.624C148.748 29.5067 148.977 29.3573 149.169 29.176C149.361 28.984 149.516 28.7653 149.633 28.52C149.75 28.2747 149.809 28.0133 149.809 27.736ZM159.082 29.992H158.986C158.773 30.3333 158.447 30.632 158.01 30.888C157.573 31.1333 157.05 31.256 156.442 31.256C155.941 31.256 155.461 31.1547 155.002 30.952C154.554 30.7387 154.159 30.4453 153.818 30.072C153.477 29.6987 153.205 29.2613 153.002 28.76C152.799 28.248 152.698 27.688 152.698 27.08C152.698 26.472 152.799 25.9173 153.002 25.416C153.205 24.904 153.477 24.4613 153.818 24.088C154.159 23.7147 154.554 23.4267 155.002 23.224C155.461 23.0107 155.941 22.904 156.442 22.904C157.05 22.904 157.573 23.032 158.01 23.288C158.447 23.5333 158.773 23.8267 158.986 24.168H159.082L158.986 23.08V19.544H160.762V31H159.082V29.992ZM156.778 29.608C157.077 29.608 157.365 29.5493 157.642 29.432C157.93 29.3147 158.175 29.1493 158.378 28.936C158.591 28.7227 158.762 28.4613 158.89 28.152C159.018 27.832 159.082 27.4747 159.082 27.08C159.082 26.6853 159.018 26.3333 158.89 26.024C158.762 25.704 158.591 25.4373 158.378 25.224C158.175 25.0107 157.93 24.8453 157.642 24.728C157.365 24.6107 157.077 24.552 156.778 24.552C156.469 24.552 156.175 24.6107 155.898 24.728C155.621 24.8453 155.375 25.016 155.162 25.24C154.959 25.4533 154.794 25.7147 154.666 26.024C154.538 26.3333 154.474 26.6853 154.474 27.08C154.474 27.4747 154.538 27.8267 154.666 28.136C154.794 28.4453 154.959 28.712 155.162 28.936C155.375 29.1493 155.621 29.3147 155.898 29.432C156.175 29.5493 156.469 29.608 156.778 29.608ZM169.716 22.904C170.313 22.904 170.863 23.0107 171.364 23.224C171.865 23.4267 172.297 23.7147 172.66 24.088C173.023 24.4613 173.305 24.904 173.508 25.416C173.711 25.928 173.812 26.4827 173.812 27.08C173.812 27.6773 173.711 28.232 173.508 28.744C173.305 29.256 173.023 29.6987 172.66 30.072C172.297 30.4453 171.865 30.7387 171.364 30.952C170.863 31.1547 170.313 31.256 169.716 31.256C169.119 31.256 168.569 31.1547 168.068 30.952C167.567 30.7387 167.135 30.4453 166.772 30.072C166.409 29.6987 166.127 29.256 165.924 28.744C165.721 28.232 165.62 27.6773 165.62 27.08C165.62 26.4827 165.721 25.928 165.924 25.416C166.127 24.904 166.409 24.4613 166.772 24.088C167.135 23.7147 167.567 23.4267 168.068 23.224C168.569 23.0107 169.119 22.904 169.716 22.904ZM169.716 29.608C170.015 29.608 170.303 29.5493 170.58 29.432C170.857 29.3147 171.103 29.1493 171.316 28.936C171.54 28.7227 171.716 28.4613 171.844 28.152C171.972 27.832 172.036 27.4747 172.036 27.08C172.036 26.6853 171.972 26.3333 171.844 26.024C171.716 25.704 171.54 25.4373 171.316 25.224C171.103 25.0107 170.857 24.8453 170.58 24.728C170.303 24.6107 170.015 24.552 169.716 24.552C169.417 24.552 169.129 24.6107 168.852 24.728C168.575 24.8453 168.324 25.0107 168.1 25.224C167.887 25.4373 167.716 25.704 167.588 26.024C167.46 26.3333 167.396 26.6853 167.396 27.08C167.396 27.4747 167.46 27.832 167.588 28.152C167.716 28.4613 167.887 28.7227 168.1 28.936C168.324 29.1493 168.575 29.3147 168.852 29.432C169.129 29.5493 169.417 29.608 169.716 29.608ZM176.685 24.216H176.781C177.016 23.8427 177.347 23.5333 177.773 23.288C178.211 23.032 178.701 22.904 179.245 22.904C180.237 22.904 180.979 23.2027 181.469 23.8C181.96 24.3867 182.205 25.1707 182.205 26.152V31H180.429V26.392C180.429 25.7093 180.269 25.2347 179.949 24.968C179.64 24.6907 179.229 24.552 178.717 24.552C178.408 24.552 178.136 24.616 177.901 24.744C177.667 24.872 177.464 25.048 177.293 25.272C177.123 25.4853 176.995 25.736 176.909 26.024C176.824 26.3013 176.781 26.5947 176.781 26.904V31H175.005V23.16H176.685V24.216Z" fill="white"/>
<path d="M98.992 43.088H103.152L111.76 66H107.76L105.68 60.112H96.464L94.384 66H90.384L98.992 43.088ZM104.464 56.816L102.064 50.064L101.168 47.376H100.976L100.08 50.064L97.68 56.816H104.464ZM114.46 66V43.088H122.396C123.42 43.088 124.38 43.2587 125.276 43.6C126.194 43.9413 126.994 44.4213 127.676 45.04C128.359 45.6587 128.892 46.4053 129.276 47.28C129.682 48.1333 129.884 49.0827 129.884 50.128C129.884 51.152 129.682 52.1013 129.276 52.976C128.892 53.8293 128.359 54.5653 127.676 55.184C126.994 55.8027 126.194 56.2827 125.276 56.624C124.38 56.9653 123.42 57.136 122.396 57.136H118.076V66H114.46ZM122.492 53.68C123.09 53.68 123.623 53.584 124.092 53.392C124.562 53.1787 124.956 52.9013 125.276 52.56C125.596 52.2187 125.842 51.8347 126.012 51.408C126.183 50.9813 126.268 50.5547 126.268 50.128C126.268 49.68 126.183 49.2427 126.012 48.816C125.842 48.3893 125.596 48.016 125.276 47.696C124.956 47.3547 124.562 47.0773 124.092 46.864C123.623 46.6507 123.09 46.544 122.492 46.544H118.076V53.68H122.492ZM132.96 43.088H136.576V53.904H136.768L146.016 43.088H150.528V43.28L142.144 52.944L151.232 65.808V66H146.816L139.648 55.76L136.576 59.312V66H132.96V43.088ZM153.585 66V43.088H161.521C162.545 43.088 163.505 43.2587 164.401 43.6C165.319 43.9413 166.119 44.4213 166.801 45.04C167.484 45.6587 168.017 46.4053 168.401 47.28C168.807 48.1333 169.009 49.0827 169.009 50.128C169.009 51.152 168.807 52.1013 168.401 52.976C168.017 53.8293 167.484 54.5653 166.801 55.184C166.119 55.8027 165.319 56.2827 164.401 56.624C163.505 56.9653 162.545 57.136 161.521 57.136H157.201V66H153.585ZM161.617 53.68C162.215 53.68 162.748 53.584 163.217 53.392C163.687 53.1787 164.081 52.9013 164.401 52.56C164.721 52.2187 164.967 51.8347 165.137 51.408C165.308 50.9813 165.393 50.5547 165.393 50.128C165.393 49.68 165.308 49.2427 165.137 48.816C164.967 48.3893 164.721 48.016 164.401 47.696C164.081 47.3547 163.687 47.0773 163.217 46.864C162.748 46.6507 162.215 46.544 161.617 46.544H157.201V53.68H161.617ZM182.173 63.888H181.981C181.511 64.6347 180.839 65.264 179.965 65.776C179.111 66.2667 178.141 66.512 177.053 66.512C175.069 66.512 173.586 65.9253 172.605 64.752C171.623 63.5573 171.133 61.9787 171.133 60.016V50.32H174.685V59.536C174.685 60.9013 174.994 61.8613 175.613 62.416C176.253 62.9493 177.085 63.216 178.109 63.216C178.706 63.216 179.239 63.088 179.709 62.832C180.199 62.576 180.615 62.2347 180.957 61.808C181.298 61.36 181.554 60.8587 181.725 60.304C181.895 59.728 181.981 59.1307 181.981 58.512V50.32H185.533V66H182.173V63.888ZM189.105 50.32H192.465V52.688H192.657C192.849 52.2827 193.105 51.9093 193.425 51.568C193.766 51.2053 194.139 50.9067 194.545 50.672C194.971 50.416 195.409 50.224 195.857 50.096C196.326 49.9467 196.774 49.872 197.201 49.872C197.713 49.872 198.15 49.9147 198.513 50C198.875 50.0853 199.206 50.2027 199.505 50.352L198.481 53.648C198.246 53.5413 197.979 53.4667 197.681 53.424C197.403 53.36 197.062 53.328 196.657 53.328C196.081 53.328 195.547 53.4453 195.057 53.68C194.587 53.9147 194.171 54.2347 193.809 54.64C193.446 55.0453 193.158 55.5253 192.945 56.08C192.753 56.6347 192.657 57.2213 192.657 57.84V66H189.105V50.32ZM214.976 62.256C214.315 63.472 213.376 64.4853 212.16 65.296C210.944 66.1067 209.451 66.512 207.68 66.512C206.507 66.512 205.419 66.3093 204.416 65.904C203.435 65.4773 202.582 64.8907 201.856 64.144C201.131 63.3973 200.566 62.5227 200.16 61.52C199.755 60.496 199.552 59.376 199.552 58.16C199.552 57.0293 199.744 55.9627 200.128 54.96C200.512 53.936 201.046 53.0507 201.728 52.304C202.432 51.536 203.275 50.928 204.256 50.48C205.238 50.032 206.326 49.808 207.52 49.808C208.736 49.808 209.814 50.0107 210.752 50.416C211.712 50.8213 212.523 51.3867 213.184 52.112C213.846 52.8373 214.347 53.712 214.688 54.736C215.051 55.76 215.232 56.88 215.232 58.096C215.232 58.2027 215.232 58.2987 215.232 58.384C215.211 58.4907 215.2 58.5867 215.2 58.672C215.179 58.7573 215.168 58.8427 215.168 58.928H203.104C203.168 59.6747 203.35 60.3253 203.648 60.88C203.947 61.4347 204.31 61.8933 204.736 62.256C205.184 62.6187 205.675 62.8853 206.208 63.056C206.742 63.2267 207.264 63.312 207.776 63.312C208.8 63.312 209.643 63.0667 210.304 62.576C210.966 62.0853 211.51 61.4773 211.936 60.752L214.976 62.256ZM211.68 56.208C211.638 55.888 211.531 55.536 211.36 55.152C211.211 54.7467 210.966 54.384 210.624 54.064C210.304 53.7227 209.878 53.4347 209.344 53.2C208.832 52.9653 208.203 52.848 207.456 52.848C206.432 52.848 205.547 53.1573 204.8 53.776C204.075 54.3733 203.584 55.184 203.328 56.208H211.68Z" fill="white"/>
<defs>
<clipPath id="clip0_1_682">
<rect width="50" height="50" fill="white" transform="translate(24 20)"/>
</clipPath>
</defs>
</svg>
