<svg width="360" height="112" viewBox="0 0 360 112" fill="none" xmlns="http://www.w3.org/2000/svg">
<rect x="1" y="1" width="358" height="110" rx="19" fill="black"/>
<rect x="1" y="1" width="358" height="110" rx="19" stroke="#6D6D6D" stroke-width="2"/>
<path d="M52.2182 54.6576L27.2235 81.027C27.5042 82.0287 28.0085 82.9525 28.6981 83.7278C29.3876 84.5031 30.2441 85.1093 31.202 85.5002C32.1599 85.8911 33.1939 86.0563 34.2249 85.9831C35.2559 85.91 36.2566 85.6004 37.1506 85.0781L65.2743 68.9488L52.2182 54.6576Z" fill="#EA4335"/>
<path d="M77.4922 50.175L65.3301 43.1607L51.6407 55.2576L65.386 68.9112L77.4549 61.9719C78.5241 61.4081 79.4197 60.5604 80.0446 59.5207C80.6695 58.4809 80.9999 57.2888 80.9999 56.0734C80.9999 54.8581 80.6695 53.6659 80.0446 52.6262C79.4197 51.5864 78.5241 50.7387 77.4549 50.175H77.4922Z" fill="#FBBC04"/>
<path d="M27.2236 30.9887C27.0725 31.5511 26.9973 32.1315 27.0001 32.7141V79.3013C27.0016 79.8837 27.0767 80.4635 27.2236 81.0268L53.075 55.3326L27.2236 30.9887Z" fill="#4285F4"/>
<path d="M52.4044 56.0079L65.3301 43.1608L37.2437 26.9565C36.1871 26.3334 34.9853 26.0033 33.7608 26C32.282 25.9971 30.8427 26.4811 29.6625 27.3784C28.4822 28.2757 27.6257 29.537 27.2235 30.9701L52.4044 56.0079Z" fill="#34A853"/>
<path d="M109.042 28.464H116.72C116.749 28.6547 116.779 28.86 116.808 29.08C116.837 29.2853 116.852 29.5053 116.852 29.74C116.852 30.6787 116.705 31.61 116.412 32.534C116.119 33.458 115.62 34.2793 114.916 34.998C114.197 35.746 113.354 36.3253 112.386 36.736C111.418 37.1467 110.311 37.352 109.064 37.352C107.935 37.352 106.864 37.1467 105.852 36.736C104.855 36.3253 103.982 35.7533 103.234 35.02C102.486 34.2867 101.892 33.4213 101.452 32.424C101.027 31.412 100.814 30.312 100.814 29.124C100.814 27.936 101.027 26.8433 101.452 25.846C101.892 24.834 102.486 23.9613 103.234 23.228C103.982 22.4947 104.855 21.9227 105.852 21.512C106.864 21.1013 107.935 20.896 109.064 20.896C110.267 20.896 111.374 21.1087 112.386 21.534C113.413 21.9593 114.271 22.5533 114.96 23.316L113.222 25.054C112.709 24.482 112.1 24.042 111.396 23.734C110.707 23.426 109.922 23.272 109.042 23.272C108.294 23.272 107.575 23.4113 106.886 23.69C106.197 23.9687 105.588 24.3647 105.06 24.878C104.532 25.3767 104.114 25.9853 103.806 26.704C103.498 27.4227 103.344 28.2293 103.344 29.124C103.344 30.0187 103.498 30.8253 103.806 31.544C104.114 32.2627 104.532 32.8787 105.06 33.392C105.588 33.8907 106.197 34.2793 106.886 34.558C107.575 34.8367 108.301 34.976 109.064 34.976C110.076 34.976 110.89 34.822 111.506 34.514C112.137 34.206 112.665 33.8467 113.09 33.436C113.398 33.1427 113.669 32.7613 113.904 32.292C114.139 31.808 114.293 31.28 114.366 30.708H109.042V28.464ZM128.837 34.426C128.383 35.262 127.737 35.9587 126.901 36.516C126.065 37.0733 125.039 37.352 123.821 37.352C123.015 37.352 122.267 37.2127 121.577 36.934C120.903 36.6407 120.316 36.2373 119.817 35.724C119.319 35.2107 118.93 34.6093 118.651 33.92C118.373 33.216 118.233 32.446 118.233 31.61C118.233 30.8327 118.365 30.0993 118.629 29.41C118.893 28.706 119.26 28.0973 119.729 27.584C120.213 27.056 120.793 26.638 121.467 26.33C122.142 26.022 122.89 25.868 123.711 25.868C124.547 25.868 125.288 26.0073 125.933 26.286C126.593 26.5647 127.151 26.9533 127.605 27.452C128.06 27.9507 128.405 28.552 128.639 29.256C128.889 29.96 129.013 30.73 129.013 31.566C129.013 31.6393 129.013 31.7053 129.013 31.764C128.999 31.8373 128.991 31.9033 128.991 31.962C128.977 32.0207 128.969 32.0793 128.969 32.138H120.675C120.719 32.6513 120.844 33.0987 121.049 33.48C121.255 33.8613 121.504 34.1767 121.797 34.426C122.105 34.6753 122.443 34.8587 122.809 34.976C123.176 35.0933 123.535 35.152 123.887 35.152C124.591 35.152 125.171 34.9833 125.625 34.646C126.08 34.3087 126.454 33.8907 126.747 33.392L128.837 34.426ZM126.571 30.268C126.542 30.048 126.469 29.806 126.351 29.542C126.249 29.2633 126.08 29.014 125.845 28.794C125.625 28.5593 125.332 28.3613 124.965 28.2C124.613 28.0387 124.181 27.958 123.667 27.958C122.963 27.958 122.355 28.1707 121.841 28.596C121.343 29.0067 121.005 29.564 120.829 30.268H126.571ZM131.725 28.376H129.833V26.22H131.725V22.92H134.167V26.22H136.829V28.376H134.167V33.172C134.167 33.436 134.196 33.678 134.255 33.898C134.313 34.118 134.401 34.3013 134.519 34.448C134.768 34.7267 135.083 34.866 135.465 34.866C135.699 34.866 135.883 34.8513 136.015 34.822C136.147 34.778 136.286 34.7193 136.433 34.646L137.181 36.802C136.873 36.9193 136.55 37.0073 136.213 37.066C135.875 37.1393 135.494 37.176 135.069 37.176C134.555 37.176 134.101 37.0953 133.705 36.934C133.309 36.7727 132.964 36.5527 132.671 36.274C132.04 35.6433 131.725 34.7853 131.725 33.7V28.376ZM145.093 24.306C144.624 24.306 144.228 24.1447 143.905 23.822C143.597 23.4993 143.443 23.1107 143.443 22.656C143.443 22.2013 143.597 21.8127 143.905 21.49C144.228 21.1673 144.624 21.006 145.093 21.006C145.548 21.006 145.929 21.1673 146.237 21.49C146.56 21.8127 146.721 22.2013 146.721 22.656C146.721 23.1107 146.56 23.4993 146.237 23.822C145.929 24.1447 145.548 24.306 145.093 24.306ZM143.861 37V26.22H146.303V37H143.861ZM150.029 28.376H148.137V26.22H150.029V22.92H152.471V26.22H155.133V28.376H152.471V33.172C152.471 33.436 152.501 33.678 152.559 33.898C152.618 34.118 152.706 34.3013 152.823 34.448C153.073 34.7267 153.388 34.866 153.769 34.866C154.004 34.866 154.187 34.8513 154.319 34.822C154.451 34.778 154.591 34.7193 154.737 34.646L155.485 36.802C155.177 36.9193 154.855 37.0073 154.517 37.066C154.18 37.1393 153.799 37.176 153.373 37.176C152.86 37.176 152.405 37.0953 152.009 36.934C151.613 36.7727 151.269 36.5527 150.975 36.274C150.345 35.6433 150.029 34.7853 150.029 33.7V28.376ZM167.006 25.868C167.827 25.868 168.582 26.0147 169.272 26.308C169.961 26.5867 170.555 26.9827 171.054 27.496C171.552 28.0093 171.941 28.618 172.22 29.322C172.498 30.026 172.638 30.7887 172.638 31.61C172.638 32.4313 172.498 33.194 172.22 33.898C171.941 34.602 171.552 35.2107 171.054 35.724C170.555 36.2373 169.961 36.6407 169.272 36.934C168.582 37.2127 167.827 37.352 167.006 37.352C166.184 37.352 165.429 37.2127 164.74 36.934C164.05 36.6407 163.456 36.2373 162.958 35.724C162.459 35.2107 162.07 34.602 161.792 33.898C161.513 33.194 161.374 32.4313 161.374 31.61C161.374 30.7887 161.513 30.026 161.792 29.322C162.07 28.618 162.459 28.0093 162.958 27.496C163.456 26.9827 164.05 26.5867 164.74 26.308C165.429 26.0147 166.184 25.868 167.006 25.868ZM167.006 35.086C167.416 35.086 167.812 35.0053 168.194 34.844C168.575 34.6827 168.912 34.4553 169.206 34.162C169.514 33.8687 169.756 33.5093 169.932 33.084C170.108 32.644 170.196 32.1527 170.196 31.61C170.196 31.0673 170.108 30.5833 169.932 30.158C169.756 29.718 169.514 29.3513 169.206 29.058C168.912 28.7647 168.575 28.5373 168.194 28.376C167.812 28.2147 167.416 28.134 167.006 28.134C166.595 28.134 166.199 28.2147 165.818 28.376C165.436 28.5373 165.092 28.7647 164.784 29.058C164.49 29.3513 164.256 29.718 164.08 30.158C163.904 30.5833 163.816 31.0673 163.816 31.61C163.816 32.1527 163.904 32.644 164.08 33.084C164.256 33.5093 164.49 33.8687 164.784 34.162C165.092 34.4553 165.436 34.6827 165.818 34.844C166.199 35.0053 166.595 35.086 167.006 35.086ZM176.589 27.672H176.721C177.044 27.1587 177.498 26.7333 178.085 26.396C178.686 26.044 179.361 25.868 180.109 25.868C181.473 25.868 182.492 26.2787 183.167 27.1C183.842 27.9067 184.179 28.9847 184.179 30.334V37H181.737V30.664C181.737 29.7253 181.517 29.0727 181.077 28.706C180.652 28.3247 180.087 28.134 179.383 28.134C178.958 28.134 178.584 28.222 178.261 28.398C177.938 28.574 177.66 28.816 177.425 29.124C177.19 29.4173 177.014 29.762 176.897 30.158C176.78 30.5393 176.721 30.9427 176.721 31.368V37H174.279V26.22H176.589V27.672Z" fill="white"/>
<path d="M118.084 67.928H133.44C133.499 68.3093 133.557 68.72 133.616 69.16C133.675 69.5707 133.704 70.0107 133.704 70.48C133.704 72.3573 133.411 74.22 132.824 76.068C132.237 77.916 131.24 79.5587 129.832 80.996C128.395 82.492 126.708 83.6507 124.772 84.472C122.836 85.2933 120.621 85.704 118.128 85.704C115.869 85.704 113.728 85.2933 111.704 84.472C109.709 83.6507 107.964 82.5067 106.468 81.04C104.972 79.5733 103.784 77.8427 102.904 75.848C102.053 73.824 101.628 71.624 101.628 69.248C101.628 66.872 102.053 64.6867 102.904 62.692C103.784 60.668 104.972 58.9227 106.468 57.456C107.964 55.9893 109.709 54.8453 111.704 54.024C113.728 53.2027 115.869 52.792 118.128 52.792C120.533 52.792 122.748 53.2173 124.772 54.068C126.825 54.9187 128.541 56.1067 129.92 57.632L126.444 61.108C125.417 59.964 124.2 59.084 122.792 58.468C121.413 57.852 119.844 57.544 118.084 57.544C116.588 57.544 115.151 57.8227 113.772 58.38C112.393 58.9373 111.176 59.7293 110.12 60.756C109.064 61.7533 108.228 62.9707 107.612 64.408C106.996 65.8453 106.688 67.4587 106.688 69.248C106.688 71.0373 106.996 72.6507 107.612 74.088C108.228 75.5253 109.064 76.7573 110.12 77.784C111.176 78.7813 112.393 79.5587 113.772 80.116C115.151 80.6733 116.603 80.952 118.128 80.952C120.152 80.952 121.78 80.644 123.012 80.028C124.273 79.412 125.329 78.6933 126.18 77.872C126.796 77.2853 127.339 76.5227 127.808 75.584C128.277 74.616 128.585 73.56 128.732 72.416H118.084V67.928ZM147.73 62.736C149.373 62.736 150.884 63.0293 152.262 63.616C153.641 64.1733 154.829 64.9653 155.826 65.992C156.824 67.0187 157.601 68.236 158.158 69.644C158.716 71.052 158.994 72.5773 158.994 74.22C158.994 75.8627 158.716 77.388 158.158 78.796C157.601 80.204 156.824 81.4213 155.826 82.448C154.829 83.4747 153.641 84.2813 152.262 84.868C150.884 85.4253 149.373 85.704 147.73 85.704C146.088 85.704 144.577 85.4253 143.198 84.868C141.82 84.2813 140.632 83.4747 139.634 82.448C138.637 81.4213 137.86 80.204 137.302 78.796C136.745 77.388 136.466 75.8627 136.466 74.22C136.466 72.5773 136.745 71.052 137.302 69.644C137.86 68.236 138.637 67.0187 139.634 65.992C140.632 64.9653 141.82 64.1733 143.198 63.616C144.577 63.0293 146.088 62.736 147.73 62.736ZM147.73 81.172C148.552 81.172 149.344 81.0107 150.106 80.688C150.869 80.3653 151.544 79.9107 152.13 79.324C152.746 78.7373 153.23 78.0187 153.582 77.168C153.934 76.288 154.11 75.3053 154.11 74.22C154.11 73.1347 153.934 72.1667 153.582 71.316C153.23 70.436 152.746 69.7027 152.13 69.116C151.544 68.5293 150.869 68.0747 150.106 67.752C149.344 67.4293 148.552 67.268 147.73 67.268C146.909 67.268 146.117 67.4293 145.354 67.752C144.592 68.0747 143.902 68.5293 143.286 69.116C142.7 69.7027 142.23 70.436 141.878 71.316C141.526 72.1667 141.35 73.1347 141.35 74.22C141.35 75.3053 141.526 76.288 141.878 77.168C142.23 78.0187 142.7 78.7373 143.286 79.324C143.902 79.9107 144.592 80.3653 145.354 80.688C146.117 81.0107 146.909 81.172 147.73 81.172ZM172.738 62.736C174.381 62.736 175.892 63.0293 177.27 63.616C178.649 64.1733 179.837 64.9653 180.834 65.992C181.832 67.0187 182.609 68.236 183.166 69.644C183.724 71.052 184.002 72.5773 184.002 74.22C184.002 75.8627 183.724 77.388 183.166 78.796C182.609 80.204 181.832 81.4213 180.834 82.448C179.837 83.4747 178.649 84.2813 177.27 84.868C175.892 85.4253 174.381 85.704 172.738 85.704C171.096 85.704 169.585 85.4253 168.206 84.868C166.828 84.2813 165.64 83.4747 164.642 82.448C163.645 81.4213 162.868 80.204 162.31 78.796C161.753 77.388 161.474 75.8627 161.474 74.22C161.474 72.5773 161.753 71.052 162.31 69.644C162.868 68.236 163.645 67.0187 164.642 65.992C165.64 64.9653 166.828 64.1733 168.206 63.616C169.585 63.0293 171.096 62.736 172.738 62.736ZM172.738 81.172C173.56 81.172 174.352 81.0107 175.114 80.688C175.877 80.3653 176.552 79.9107 177.138 79.324C177.754 78.7373 178.238 78.0187 178.59 77.168C178.942 76.288 179.118 75.3053 179.118 74.22C179.118 73.1347 178.942 72.1667 178.59 71.316C178.238 70.436 177.754 69.7027 177.138 69.116C176.552 68.5293 175.877 68.0747 175.114 67.752C174.352 67.4293 173.56 67.268 172.738 67.268C171.917 67.268 171.125 67.4293 170.362 67.752C169.6 68.0747 168.91 68.5293 168.294 69.116C167.708 69.7027 167.238 70.436 166.886 71.316C166.534 72.1667 166.358 73.1347 166.358 74.22C166.358 75.3053 166.534 76.288 166.886 77.168C167.238 78.0187 167.708 78.7373 168.294 79.324C168.91 79.9107 169.6 80.3653 170.362 80.688C171.125 81.0107 171.917 81.172 172.738 81.172ZM197.482 95.208C195.986 95.208 194.651 95.0027 193.478 94.592C192.334 94.2107 191.337 93.712 190.486 93.096C189.635 92.48 188.931 91.7907 188.374 91.028C187.846 90.2653 187.45 89.532 187.186 88.828L191.85 86.936C192.261 88.08 192.965 89.004 193.962 89.708C194.959 90.4413 196.133 90.808 197.482 90.808C199.506 90.808 201.075 90.192 202.19 88.96C203.334 87.728 203.906 86.0267 203.906 83.856V82.096H203.642C202.967 83.064 202.029 83.8707 200.826 84.516C199.653 85.1613 198.274 85.484 196.69 85.484C195.37 85.484 194.094 85.2053 192.862 84.648C191.63 84.0907 190.53 83.3133 189.562 82.316C188.623 81.3187 187.875 80.116 187.318 78.708C186.761 77.3 186.482 75.76 186.482 74.088C186.482 72.416 186.761 70.8907 187.318 69.512C187.875 68.104 188.623 66.9013 189.562 65.904C190.53 64.9067 191.63 64.1293 192.862 63.572C194.094 63.0147 195.37 62.736 196.69 62.736C198.274 62.736 199.653 63.0587 200.826 63.704C202.029 64.3493 202.967 65.156 203.642 66.124H203.906V63.44H208.614V83.768C208.614 85.616 208.321 87.244 207.734 88.652C207.177 90.0893 206.399 91.292 205.402 92.26C204.434 93.228 203.261 93.9613 201.882 94.46C200.533 94.9587 199.066 95.208 197.482 95.208ZM197.658 80.952C198.45 80.952 199.227 80.8053 199.99 80.512C200.753 80.2187 201.413 79.7787 201.97 79.192C202.557 78.6053 203.026 77.8867 203.378 77.036C203.73 76.1853 203.906 75.2027 203.906 74.088C203.906 73.0027 203.73 72.0347 203.378 71.184C203.026 70.304 202.557 69.5853 201.97 69.028C201.413 68.4413 200.753 68.0013 199.99 67.708C199.227 67.3853 198.45 67.224 197.658 67.224C196.837 67.224 196.045 67.3853 195.282 67.708C194.549 68.0013 193.889 68.4413 193.302 69.028C192.715 69.6147 192.246 70.3333 191.894 71.184C191.542 72.0347 191.366 73.0027 191.366 74.088C191.366 75.1733 191.542 76.1413 191.894 76.992C192.246 77.8427 192.715 78.5613 193.302 79.148C193.889 79.7347 194.549 80.1893 195.282 80.512C196.045 80.8053 196.837 80.952 197.658 80.952ZM213.538 85V53.496H218.422V85H213.538ZM243.096 79.852C242.187 81.524 240.896 82.9173 239.224 84.032C237.552 85.1467 235.499 85.704 233.064 85.704C231.451 85.704 229.955 85.4253 228.576 84.868C227.227 84.2813 226.054 83.4747 225.056 82.448C224.059 81.4213 223.282 80.2187 222.724 78.84C222.167 77.432 221.888 75.892 221.888 74.22C221.888 72.6653 222.152 71.1987 222.68 69.82C223.208 68.412 223.942 67.1947 224.88 66.168C225.848 65.112 227.007 64.276 228.356 63.66C229.706 63.044 231.202 62.736 232.844 62.736C234.516 62.736 235.998 63.0147 237.288 63.572C238.608 64.1293 239.723 64.9067 240.632 65.904C241.542 66.9013 242.231 68.104 242.7 69.512C243.199 70.92 243.448 72.46 243.448 74.132C243.448 74.2787 243.448 74.4107 243.448 74.528C243.419 74.6747 243.404 74.8067 243.404 74.924C243.375 75.0413 243.36 75.1587 243.36 75.276H226.772C226.86 76.3027 227.11 77.1973 227.52 77.96C227.931 78.7227 228.43 79.3533 229.016 79.852C229.632 80.3507 230.307 80.7173 231.04 80.952C231.774 81.1867 232.492 81.304 233.196 81.304C234.604 81.304 235.763 80.9667 236.672 80.292C237.582 79.6173 238.33 78.7813 238.916 77.784L243.096 79.852ZM238.564 71.536C238.506 71.096 238.359 70.612 238.124 70.084C237.919 69.5267 237.582 69.028 237.112 68.588C236.672 68.1187 236.086 67.7227 235.352 67.4C234.648 67.0773 233.783 66.916 232.756 66.916C231.348 66.916 230.131 67.3413 229.104 68.192C228.107 69.0133 227.432 70.128 227.08 71.536H238.564ZM257.512 85V53.496H268.424C269.832 53.496 271.152 53.7307 272.384 54.2C273.645 54.6693 274.745 55.3293 275.684 56.18C276.622 57.0307 277.356 58.0573 277.884 59.26C278.441 60.4333 278.72 61.7387 278.72 63.176C278.72 64.584 278.441 65.8893 277.884 67.092C277.356 68.2653 276.622 69.2773 275.684 70.128C274.745 70.9787 273.645 71.6387 272.384 72.108C271.152 72.5773 269.832 72.812 268.424 72.812H262.484V85H257.512ZM268.556 68.06C269.377 68.06 270.11 67.928 270.756 67.664C271.401 67.3707 271.944 66.9893 272.384 66.52C272.824 66.0507 273.161 65.5227 273.396 64.936C273.63 64.3493 273.748 63.7627 273.748 63.176C273.748 62.56 273.63 61.9587 273.396 61.372C273.161 60.7853 272.824 60.272 272.384 59.832C271.944 59.3627 271.401 58.9813 270.756 58.688C270.11 58.3947 269.377 58.248 268.556 58.248H262.484V68.06H268.556ZM282.46 85V53.496H287.344V85H282.46ZM305.682 82.36H305.418C304.773 83.2107 303.937 83.988 302.91 84.692C301.883 85.3667 300.578 85.704 298.994 85.704C297.85 85.704 296.779 85.5133 295.782 85.132C294.785 84.78 293.919 84.2813 293.186 83.636C292.453 82.9613 291.866 82.184 291.426 81.304C291.015 80.3947 290.81 79.3973 290.81 78.312C290.81 77.168 291.03 76.1413 291.47 75.232C291.939 74.3227 292.57 73.56 293.362 72.944C294.183 72.328 295.151 71.8587 296.266 71.536C297.381 71.184 298.583 71.008 299.874 71.008C301.311 71.008 302.514 71.1547 303.482 71.448C304.45 71.712 305.183 71.9613 305.682 72.196V71.36C305.682 70.7147 305.535 70.1133 305.242 69.556C304.978 68.9987 304.597 68.5293 304.098 68.148C303.629 67.7373 303.086 67.4293 302.47 67.224C301.854 66.9893 301.209 66.872 300.534 66.872C299.449 66.872 298.466 67.092 297.586 67.532C296.735 67.9427 295.973 68.6173 295.298 69.556L291.426 67.004C292.453 65.596 293.729 64.54 295.254 63.836C296.779 63.1027 298.51 62.736 300.446 62.736C303.643 62.736 306.107 63.528 307.838 65.112C309.598 66.696 310.478 68.9547 310.478 71.888V85H305.682V82.36ZM305.682 76.024C305.037 75.6427 304.318 75.3347 303.526 75.1C302.734 74.8653 301.825 74.748 300.798 74.748C299.273 74.748 298.055 75.1 297.146 75.804C296.237 76.508 295.782 77.3587 295.782 78.356C295.782 78.884 295.899 79.3533 296.134 79.764C296.369 80.1453 296.662 80.4827 297.014 80.776C297.395 81.0693 297.821 81.2893 298.29 81.436C298.789 81.5827 299.287 81.656 299.786 81.656C300.578 81.656 301.326 81.5093 302.03 81.216C302.763 80.8933 303.394 80.4827 303.922 79.984C304.45 79.456 304.875 78.8547 305.198 78.18C305.521 77.5053 305.682 76.7867 305.682 76.024ZM321.332 83.768L312.356 63.44H317.812L323.752 77.74H323.972L329.736 63.44H335.148L321.64 94.504H316.448L321.332 83.768Z" fill="white"/>
</svg>
