<svg width="286" height="90" viewBox="0 0 286 90" fill="none" xmlns="http://www.w3.org/2000/svg">
<rect x="1" y="1" width="284" height="88" rx="19" fill="black"/>
<rect x="1" y="1" width="284" height="88" rx="19" stroke="#6D6D6D" stroke-width="2"/>
<g clip-path="url(#clip0_1_627)">
<path d="M47.5152 43.8813L26.6863 65.8558C26.9201 66.6906 27.3405 67.4604 27.9151 68.1065C28.4897 68.7525 29.2034 69.2578 30.0017 69.5835C30.7999 69.9093 31.6616 70.0469 32.5207 69.9859C33.3799 69.925 34.2139 69.667 34.9588 69.2317L58.3952 55.7907L47.5152 43.8813Z" fill="#EA4335"/>
<path d="M68.5768 40.1458L58.4417 34.3006L47.034 44.3813L58.4883 55.7593L68.5458 49.9765C69.4368 49.5068 70.1831 48.8004 70.7039 47.9339C71.2246 47.0674 71.4999 46.074 71.4999 45.0612C71.4999 44.0484 71.2246 43.0549 70.7039 42.1885C70.1831 41.322 69.4368 40.6156 68.5458 40.1458H68.5768Z" fill="#FBBC04"/>
<path d="M26.6863 24.1572C26.5604 24.6259 26.4978 25.1096 26.5001 25.5951V64.4178C26.5013 64.9031 26.5639 65.3863 26.6863 65.8557L48.2292 44.4438L26.6863 24.1572Z" fill="#4285F4"/>
<path d="M47.6703 45.0066L58.4418 34.3006L35.0364 20.7971C34.1559 20.2778 33.1545 20.0028 32.134 20C30.9017 19.9976 29.7023 20.4009 28.7187 21.1487C27.7352 21.8964 27.0214 22.9475 26.6862 24.1417L47.6703 45.0066Z" fill="#34A853"/>
</g>
<path d="M96.576 24.792H102.16C102.181 24.9307 102.203 25.08 102.224 25.24C102.245 25.3893 102.256 25.5493 102.256 25.72C102.256 26.4027 102.149 27.08 101.936 27.752C101.723 28.424 101.36 29.0213 100.848 29.544C100.325 30.088 99.712 30.5093 99.008 30.808C98.304 31.1067 97.4987 31.256 96.592 31.256C95.7707 31.256 94.992 31.1067 94.256 30.808C93.5307 30.5093 92.896 30.0933 92.352 29.56C91.808 29.0267 91.376 28.3973 91.056 27.672C90.7467 26.936 90.592 26.136 90.592 25.272C90.592 24.408 90.7467 23.6133 91.056 22.888C91.376 22.152 91.808 21.5173 92.352 20.984C92.896 20.4507 93.5307 20.0347 94.256 19.736C94.992 19.4373 95.7707 19.288 96.592 19.288C97.4667 19.288 98.272 19.4427 99.008 19.752C99.7547 20.0613 100.379 20.4933 100.88 21.048L99.616 22.312C99.2427 21.896 98.8 21.576 98.288 21.352C97.7867 21.128 97.216 21.016 96.576 21.016C96.032 21.016 95.5093 21.1173 95.008 21.32C94.5067 21.5227 94.064 21.8107 93.68 22.184C93.296 22.5467 92.992 22.9893 92.768 23.512C92.544 24.0347 92.432 24.6213 92.432 25.272C92.432 25.9227 92.544 26.5093 92.768 27.032C92.992 27.5547 93.296 28.0027 93.68 28.376C94.064 28.7387 94.5067 29.0213 95.008 29.224C95.5093 29.4267 96.0373 29.528 96.592 29.528C97.328 29.528 97.92 29.416 98.368 29.192C98.8267 28.968 99.2107 28.7067 99.52 28.408C99.744 28.1947 99.9413 27.9173 100.112 27.576C100.283 27.224 100.395 26.84 100.448 26.424H96.576V24.792ZM110.973 29.128C110.642 29.736 110.173 30.2427 109.565 30.648C108.957 31.0533 108.21 31.256 107.325 31.256C106.738 31.256 106.194 31.1547 105.693 30.952C105.202 30.7387 104.775 30.4453 104.413 30.072C104.05 29.6987 103.767 29.2613 103.565 28.76C103.362 28.248 103.261 27.688 103.261 27.08C103.261 26.5147 103.357 25.9813 103.549 25.48C103.741 24.968 104.007 24.5253 104.349 24.152C104.701 23.768 105.122 23.464 105.613 23.24C106.103 23.016 106.647 22.904 107.245 22.904C107.853 22.904 108.391 23.0053 108.861 23.208C109.341 23.4107 109.746 23.6933 110.077 24.056C110.407 24.4187 110.658 24.856 110.829 25.368C111.01 25.88 111.101 26.44 111.101 27.048C111.101 27.1013 111.101 27.1493 111.101 27.192C111.09 27.2453 111.085 27.2933 111.085 27.336C111.074 27.3787 111.069 27.4213 111.069 27.464H105.037C105.069 27.8373 105.159 28.1627 105.309 28.44C105.458 28.7173 105.639 28.9467 105.853 29.128C106.077 29.3093 106.322 29.4427 106.589 29.528C106.855 29.6133 107.117 29.656 107.373 29.656C107.885 29.656 108.306 29.5333 108.637 29.288C108.967 29.0427 109.239 28.7387 109.453 28.376L110.973 29.128ZM109.325 26.104C109.303 25.944 109.25 25.768 109.165 25.576C109.09 25.3733 108.967 25.192 108.797 25.032C108.637 24.8613 108.423 24.7173 108.157 24.6C107.901 24.4827 107.586 24.424 107.213 24.424C106.701 24.424 106.258 24.5787 105.885 24.888C105.522 25.1867 105.277 25.592 105.149 26.104H109.325ZM113.073 24.728H111.697V23.16H113.073V20.76H114.849V23.16H116.785V24.728H114.849V28.216C114.849 28.408 114.87 28.584 114.913 28.744C114.955 28.904 115.019 29.0373 115.105 29.144C115.286 29.3467 115.515 29.448 115.793 29.448C115.963 29.448 116.097 29.4373 116.193 29.416C116.289 29.384 116.39 29.3413 116.497 29.288L117.041 30.856C116.817 30.9413 116.582 31.0053 116.337 31.048C116.091 31.1013 115.814 31.128 115.505 31.128C115.131 31.128 114.801 31.0693 114.513 30.952C114.225 30.8347 113.974 30.6747 113.761 30.472C113.302 30.0133 113.073 29.3893 113.073 28.6V24.728ZM122.795 21.768C122.454 21.768 122.166 21.6507 121.931 21.416C121.707 21.1813 121.595 20.8987 121.595 20.568C121.595 20.2373 121.707 19.9547 121.931 19.72C122.166 19.4853 122.454 19.368 122.795 19.368C123.126 19.368 123.403 19.4853 123.627 19.72C123.862 19.9547 123.979 20.2373 123.979 20.568C123.979 20.8987 123.862 21.1813 123.627 21.416C123.403 21.6507 123.126 21.768 122.795 21.768ZM121.899 31V23.16H123.675V31H121.899ZM126.385 24.728H125.009V23.16H126.385V20.76H128.161V23.16H130.097V24.728H128.161V28.216C128.161 28.408 128.182 28.584 128.225 28.744C128.268 28.904 128.332 29.0373 128.417 29.144C128.598 29.3467 128.828 29.448 129.105 29.448C129.276 29.448 129.409 29.4373 129.505 29.416C129.601 29.384 129.702 29.3413 129.809 29.288L130.353 30.856C130.129 30.9413 129.894 31.0053 129.649 31.048C129.404 31.1013 129.126 31.128 128.817 31.128C128.444 31.128 128.113 31.0693 127.825 30.952C127.537 30.8347 127.286 30.6747 127.073 30.472C126.614 30.0133 126.385 29.3893 126.385 28.6V24.728ZM138.732 22.904C139.329 22.904 139.878 23.0107 140.38 23.224C140.881 23.4267 141.313 23.7147 141.676 24.088C142.038 24.4613 142.321 24.904 142.524 25.416C142.726 25.928 142.828 26.4827 142.828 27.08C142.828 27.6773 142.726 28.232 142.524 28.744C142.321 29.256 142.038 29.6987 141.676 30.072C141.313 30.4453 140.881 30.7387 140.38 30.952C139.878 31.1547 139.329 31.256 138.732 31.256C138.134 31.256 137.585 31.1547 137.084 30.952C136.582 30.7387 136.15 30.4453 135.788 30.072C135.425 29.6987 135.142 29.256 134.94 28.744C134.737 28.232 134.636 27.6773 134.636 27.08C134.636 26.4827 134.737 25.928 134.94 25.416C135.142 24.904 135.425 24.4613 135.788 24.088C136.15 23.7147 136.582 23.4267 137.084 23.224C137.585 23.0107 138.134 22.904 138.732 22.904ZM138.732 29.608C139.03 29.608 139.318 29.5493 139.596 29.432C139.873 29.3147 140.118 29.1493 140.332 28.936C140.556 28.7227 140.732 28.4613 140.86 28.152C140.988 27.832 141.052 27.4747 141.052 27.08C141.052 26.6853 140.988 26.3333 140.86 26.024C140.732 25.704 140.556 25.4373 140.332 25.224C140.118 25.0107 139.873 24.8453 139.596 24.728C139.318 24.6107 139.03 24.552 138.732 24.552C138.433 24.552 138.145 24.6107 137.868 24.728C137.59 24.8453 137.34 25.0107 137.116 25.224C136.902 25.4373 136.732 25.704 136.604 26.024C136.476 26.3333 136.412 26.6853 136.412 27.08C136.412 27.4747 136.476 27.832 136.604 28.152C136.732 28.4613 136.902 28.7227 137.116 28.936C137.34 29.1493 137.59 29.3147 137.868 29.432C138.145 29.5493 138.433 29.608 138.732 29.608ZM145.701 24.216H145.797C146.032 23.8427 146.362 23.5333 146.789 23.288C147.226 23.032 147.717 22.904 148.261 22.904C149.253 22.904 149.994 23.2027 150.485 23.8C150.976 24.3867 151.221 25.1707 151.221 26.152V31H149.445V26.392C149.445 25.7093 149.285 25.2347 148.965 24.968C148.656 24.6907 148.245 24.552 147.733 24.552C147.424 24.552 147.152 24.616 146.917 24.744C146.682 24.872 146.48 25.048 146.309 25.272C146.138 25.4853 146.01 25.736 145.925 26.024C145.84 26.3013 145.797 26.5947 145.797 26.904V31H144.021V23.16H145.701V24.216Z" fill="white"/>
<path d="M103.152 53.584H114.32C114.363 53.8613 114.405 54.16 114.448 54.48C114.491 54.7787 114.512 55.0987 114.512 55.44C114.512 56.8053 114.299 58.16 113.872 59.504C113.445 60.848 112.72 62.0427 111.696 63.088C110.651 64.176 109.424 65.0187 108.016 65.616C106.608 66.2133 104.997 66.512 103.184 66.512C101.541 66.512 99.984 66.2133 98.512 65.616C97.0613 65.0187 95.792 64.1867 94.704 63.12C93.616 62.0533 92.752 60.7947 92.112 59.344C91.4933 57.872 91.184 56.272 91.184 54.544C91.184 52.816 91.4933 51.2267 92.112 49.776C92.752 48.304 93.616 47.0347 94.704 45.968C95.792 44.9013 97.0613 44.0693 98.512 43.472C99.984 42.8747 101.541 42.576 103.184 42.576C104.933 42.576 106.544 42.8853 108.016 43.504C109.509 44.1227 110.757 44.9867 111.76 46.096L109.232 48.624C108.485 47.792 107.6 47.152 106.576 46.704C105.573 46.256 104.432 46.032 103.152 46.032C102.064 46.032 101.019 46.2347 100.016 46.64C99.0133 47.0453 98.128 47.6213 97.36 48.368C96.592 49.0933 95.984 49.9787 95.536 51.024C95.088 52.0693 94.864 53.2427 94.864 54.544C94.864 55.8453 95.088 57.0187 95.536 58.064C95.984 59.1093 96.592 60.0053 97.36 60.752C98.128 61.4773 99.0133 62.0427 100.016 62.448C101.019 62.8533 102.075 63.056 103.184 63.056C104.656 63.056 105.84 62.832 106.736 62.384C107.653 61.936 108.421 61.4133 109.04 60.816C109.488 60.3893 109.883 59.8347 110.224 59.152C110.565 58.448 110.789 57.68 110.896 56.848H103.152V53.584ZM124.713 49.808C125.908 49.808 127.006 50.0213 128.009 50.448C129.012 50.8533 129.876 51.4293 130.601 52.176C131.326 52.9227 131.892 53.808 132.297 54.832C132.702 55.856 132.905 56.9653 132.905 58.16C132.905 59.3547 132.702 60.464 132.297 61.488C131.892 62.512 131.326 63.3973 130.601 64.144C129.876 64.8907 129.012 65.4773 128.009 65.904C127.006 66.3093 125.908 66.512 124.713 66.512C123.518 66.512 122.42 66.3093 121.417 65.904C120.414 65.4773 119.55 64.8907 118.825 64.144C118.1 63.3973 117.534 62.512 117.129 61.488C116.724 60.464 116.521 59.3547 116.521 58.16C116.521 56.9653 116.724 55.856 117.129 54.832C117.534 53.808 118.1 52.9227 118.825 52.176C119.55 51.4293 120.414 50.8533 121.417 50.448C122.42 50.0213 123.518 49.808 124.713 49.808ZM124.713 63.216C125.31 63.216 125.886 63.0987 126.441 62.864C126.996 62.6293 127.486 62.2987 127.913 61.872C128.361 61.4453 128.713 60.9227 128.969 60.304C129.225 59.664 129.353 58.9493 129.353 58.16C129.353 57.3707 129.225 56.6667 128.969 56.048C128.713 55.408 128.361 54.8747 127.913 54.448C127.486 54.0213 126.996 53.6907 126.441 53.456C125.886 53.2213 125.31 53.104 124.713 53.104C124.116 53.104 123.54 53.2213 122.985 53.456C122.43 53.6907 121.929 54.0213 121.481 54.448C121.054 54.8747 120.713 55.408 120.457 56.048C120.201 56.6667 120.073 57.3707 120.073 58.16C120.073 58.9493 120.201 59.664 120.457 60.304C120.713 60.9227 121.054 61.4453 121.481 61.872C121.929 62.2987 122.43 62.6293 122.985 62.864C123.54 63.0987 124.116 63.216 124.713 63.216ZM142.901 49.808C144.095 49.808 145.194 50.0213 146.197 50.448C147.199 50.8533 148.063 51.4293 148.789 52.176C149.514 52.9227 150.079 53.808 150.485 54.832C150.89 55.856 151.093 56.9653 151.093 58.16C151.093 59.3547 150.89 60.464 150.485 61.488C150.079 62.512 149.514 63.3973 148.789 64.144C148.063 64.8907 147.199 65.4773 146.197 65.904C145.194 66.3093 144.095 66.512 142.901 66.512C141.706 66.512 140.607 66.3093 139.605 65.904C138.602 65.4773 137.738 64.8907 137.013 64.144C136.287 63.3973 135.722 62.512 135.317 61.488C134.911 60.464 134.709 59.3547 134.709 58.16C134.709 56.9653 134.911 55.856 135.317 54.832C135.722 53.808 136.287 52.9227 137.013 52.176C137.738 51.4293 138.602 50.8533 139.605 50.448C140.607 50.0213 141.706 49.808 142.901 49.808ZM142.901 63.216C143.498 63.216 144.074 63.0987 144.629 62.864C145.183 62.6293 145.674 62.2987 146.101 61.872C146.549 61.4453 146.901 60.9227 147.157 60.304C147.413 59.664 147.541 58.9493 147.541 58.16C147.541 57.3707 147.413 56.6667 147.157 56.048C146.901 55.408 146.549 54.8747 146.101 54.448C145.674 54.0213 145.183 53.6907 144.629 53.456C144.074 53.2213 143.498 53.104 142.901 53.104C142.303 53.104 141.727 53.2213 141.173 53.456C140.618 53.6907 140.117 54.0213 139.669 54.448C139.242 54.8747 138.901 55.408 138.645 56.048C138.389 56.6667 138.261 57.3707 138.261 58.16C138.261 58.9493 138.389 59.664 138.645 60.304C138.901 60.9227 139.242 61.4453 139.669 61.872C140.117 62.2987 140.618 62.6293 141.173 62.864C141.727 63.0987 142.303 63.216 142.901 63.216ZM160.896 73.424C159.808 73.424 158.837 73.2747 157.984 72.976C157.152 72.6987 156.427 72.336 155.808 71.888C155.189 71.44 154.677 70.9387 154.272 70.384C153.888 69.8293 153.6 69.296 153.408 68.784L156.8 67.408C157.099 68.24 157.611 68.912 158.336 69.424C159.061 69.9573 159.915 70.224 160.896 70.224C162.368 70.224 163.509 69.776 164.32 68.88C165.152 67.984 165.568 66.7467 165.568 65.168V63.888H165.376C164.885 64.592 164.203 65.1787 163.328 65.648C162.475 66.1173 161.472 66.352 160.32 66.352C159.36 66.352 158.432 66.1493 157.536 65.744C156.64 65.3387 155.84 64.7733 155.136 64.048C154.453 63.3227 153.909 62.448 153.504 61.424C153.099 60.4 152.896 59.28 152.896 58.064C152.896 56.848 153.099 55.7387 153.504 54.736C153.909 53.712 154.453 52.8373 155.136 52.112C155.84 51.3867 156.64 50.8213 157.536 50.416C158.432 50.0107 159.36 49.808 160.32 49.808C161.472 49.808 162.475 50.0427 163.328 50.512C164.203 50.9813 164.885 51.568 165.376 52.272H165.568V50.32H168.992V65.104C168.992 66.448 168.779 67.632 168.352 68.656C167.947 69.7013 167.381 70.576 166.656 71.28C165.952 71.984 165.099 72.5173 164.096 72.88C163.115 73.2427 162.048 73.424 160.896 73.424ZM161.024 63.056C161.6 63.056 162.165 62.9493 162.72 62.736C163.275 62.5227 163.755 62.2027 164.16 61.776C164.587 61.3493 164.928 60.8267 165.184 60.208C165.44 59.5893 165.568 58.8747 165.568 58.064C165.568 57.2747 165.44 56.5707 165.184 55.952C164.928 55.312 164.587 54.7893 164.16 54.384C163.755 53.9573 163.275 53.6373 162.72 53.424C162.165 53.1893 161.6 53.072 161.024 53.072C160.427 53.072 159.851 53.1893 159.296 53.424C158.763 53.6373 158.283 53.9573 157.856 54.384C157.429 54.8107 157.088 55.3333 156.832 55.952C156.576 56.5707 156.448 57.2747 156.448 58.064C156.448 58.8533 156.576 59.5573 156.832 60.176C157.088 60.7947 157.429 61.3173 157.856 61.744C158.283 62.1707 158.763 62.5013 159.296 62.736C159.851 62.9493 160.427 63.056 161.024 63.056ZM172.573 66V43.088H176.125V66H172.573ZM194.07 62.256C193.409 63.472 192.47 64.4853 191.254 65.296C190.038 66.1067 188.545 66.512 186.774 66.512C185.601 66.512 184.513 66.3093 183.51 65.904C182.529 65.4773 181.675 64.8907 180.95 64.144C180.225 63.3973 179.659 62.5227 179.254 61.52C178.849 60.496 178.646 59.376 178.646 58.16C178.646 57.0293 178.838 55.9627 179.222 54.96C179.606 53.936 180.139 53.0507 180.822 52.304C181.526 51.536 182.369 50.928 183.35 50.48C184.331 50.032 185.419 49.808 186.614 49.808C187.83 49.808 188.907 50.0107 189.846 50.416C190.806 50.8213 191.617 51.3867 192.278 52.112C192.939 52.8373 193.441 53.712 193.782 54.736C194.145 55.76 194.326 56.88 194.326 58.096C194.326 58.2027 194.326 58.2987 194.326 58.384C194.305 58.4907 194.294 58.5867 194.294 58.672C194.273 58.7573 194.262 58.8427 194.262 58.928H182.198C182.262 59.6747 182.443 60.3253 182.742 60.88C183.041 61.4347 183.403 61.8933 183.83 62.256C184.278 62.6187 184.769 62.8853 185.302 63.056C185.835 63.2267 186.358 63.312 186.87 63.312C187.894 63.312 188.737 63.0667 189.398 62.576C190.059 62.0853 190.603 61.4773 191.03 60.752L194.07 62.256ZM190.774 56.208C190.731 55.888 190.625 55.536 190.454 55.152C190.305 54.7467 190.059 54.384 189.718 54.064C189.398 53.7227 188.971 53.4347 188.438 53.2C187.926 52.9653 187.297 52.848 186.55 52.848C185.526 52.848 184.641 53.1573 183.894 53.776C183.169 54.3733 182.678 55.184 182.422 56.208H190.774ZM204.554 66V43.088H212.49C213.514 43.088 214.474 43.2587 215.37 43.6C216.287 43.9413 217.087 44.4213 217.77 45.04C218.453 45.6587 218.986 46.4053 219.37 47.28C219.775 48.1333 219.978 49.0827 219.978 50.128C219.978 51.152 219.775 52.1013 219.37 52.976C218.986 53.8293 218.453 54.5653 217.77 55.184C217.087 55.8027 216.287 56.2827 215.37 56.624C214.474 56.9653 213.514 57.136 212.49 57.136H208.17V66H204.554ZM212.586 53.68C213.183 53.68 213.717 53.584 214.186 53.392C214.655 53.1787 215.05 52.9013 215.37 52.56C215.69 52.2187 215.935 51.8347 216.106 51.408C216.277 50.9813 216.362 50.5547 216.362 50.128C216.362 49.68 216.277 49.2427 216.106 48.816C215.935 48.3893 215.69 48.016 215.37 47.696C215.05 47.3547 214.655 47.0773 214.186 46.864C213.717 46.6507 213.183 46.544 212.586 46.544H208.17V53.68H212.586ZM222.698 66V43.088H226.25V66H222.698ZM239.587 64.08H239.395C238.926 64.6987 238.318 65.264 237.571 65.776C236.824 66.2667 235.875 66.512 234.723 66.512C233.891 66.512 233.112 66.3733 232.387 66.096C231.662 65.84 231.032 65.4773 230.499 65.008C229.966 64.5173 229.539 63.952 229.219 63.312C228.92 62.6507 228.771 61.9253 228.771 61.136C228.771 60.304 228.931 59.5573 229.251 58.896C229.592 58.2347 230.051 57.68 230.627 57.232C231.224 56.784 231.928 56.4427 232.739 56.208C233.55 55.952 234.424 55.824 235.363 55.824C236.408 55.824 237.283 55.9307 237.987 56.144C238.691 56.336 239.224 56.5173 239.587 56.688V56.08C239.587 55.6107 239.48 55.1733 239.267 54.768C239.075 54.3627 238.798 54.0213 238.435 53.744C238.094 53.4453 237.699 53.2213 237.251 53.072C236.803 52.9013 236.334 52.816 235.843 52.816C235.054 52.816 234.339 52.976 233.699 53.296C233.08 53.5947 232.526 54.0853 232.035 54.768L229.219 52.912C229.966 51.888 230.894 51.12 232.003 50.608C233.112 50.0747 234.371 49.808 235.779 49.808C238.104 49.808 239.896 50.384 241.155 51.536C242.435 52.688 243.075 54.3307 243.075 56.464V66H239.587V64.08ZM239.587 59.472C239.118 59.1947 238.595 58.9707 238.019 58.8C237.443 58.6293 236.782 58.544 236.035 58.544C234.926 58.544 234.04 58.8 233.379 59.312C232.718 59.824 232.387 60.4427 232.387 61.168C232.387 61.552 232.472 61.8933 232.643 62.192C232.814 62.4693 233.027 62.7147 233.283 62.928C233.56 63.1413 233.87 63.3013 234.211 63.408C234.574 63.5147 234.936 63.568 235.299 63.568C235.875 63.568 236.419 63.4613 236.931 63.248C237.464 63.0133 237.923 62.7147 238.307 62.352C238.691 61.968 239 61.5307 239.235 61.04C239.47 60.5493 239.587 60.0267 239.587 59.472ZM250.969 65.104L244.441 50.32H248.409L252.729 60.72H252.889L257.081 50.32H261.017L251.193 72.912H247.417L250.969 65.104Z" fill="white"/>
<defs>
<clipPath id="clip0_1_627">
<rect width="50" height="50" fill="white" transform="translate(24 20)"/>
</clipPath>
</defs>
</svg>
